ISO-10303-21;
HEADER;
/* Generated by software containing ST-Developer
 * from STEP Tools, Inc. (www.steptools.com) 
 */
/* OPTION: using custom renumber hook */

FILE_DESCRIPTION(
/* description */ ('STEP AP242 Edition 2',
'CAx-IF Rec.Pracs.---Representation and Presentation of Product Manufa
cturing Information (PMI)---4.0---2014-10-13',
'CAx-IF Rec.Pracs.---3D Tessellated Geometry---0.4---2014-09-14','2;1',
'CAx-IF Rec.Pracs.---User Defined Attributes---1.5---2016-08-15'),
/* implementation_level */ '2;1');

FILE_NAME(
/* name */ '2.13inch e-Paper HAT bwr v3',
/* time_stamp */ '2026-08-10T14:44:04Z',
/* author */ (''),
/* organization */ (''),
/* preprocessor_version */ 'ST-DEVELOPER v20',
/* originating_system */ 'ONSHAPE BY PTC INC, 1.219',
/* authorisation */ '  ');

FILE_SCHEMA (('AP242_MANAGED_MODEL_BASED_3D_ENGINEERING_MIM_LF { 1 0 10303 442 3 1 4 }'));
ENDSEC;

DATA;
#10=SHAPE_REPRESENTATION_RELATIONSHIP('','',#937,#12);
#11=SHAPE_REPRESENTATION_RELATIONSHIP('','',#938,#13);
#12=ADVANCED_BREP_SHAPE_REPRESENTATION('',(#933),#1495);
#13=ADVANCED_BREP_SHAPE_REPRESENTATION('',(#934),#1496);
#14=CYLINDRICAL_SURFACE('',#948,0.00198810644556828);
#15=CYLINDRICAL_SURFACE('',#951,0.00198602862783555);
#16=CYLINDRICAL_SURFACE('',#954,0.00198602862783555);
#17=CYLINDRICAL_SURFACE('',#957,0.00198602862783555);
#18=CYLINDRICAL_SURFACE('',#985,0.00359144847189345);
#19=CYLINDRICAL_SURFACE('',#994,0.00202134863334344);
#20=CYLINDRICAL_SURFACE('',#997,0.00199546215952077);
#21=CYLINDRICAL_SURFACE('',#1000,0.00197254256573917);
#22=CYLINDRICAL_SURFACE('',#1003,0.00198707272451138);
#23=LINE('',#1249,#119);
#24=LINE('',#1252,#120);
#25=LINE('',#1254,#121);
#26=LINE('',#1256,#122);
#27=LINE('',#1257,#123);
#28=LINE('',#1260,#124);
#29=LINE('',#1262,#125);
#30=LINE('',#1264,#126);
#31=LINE('',#1268,#127);
#32=LINE('',#1271,#128);
#33=LINE('',#1273,#129);
#34=LINE('',#1275,#130);
#35=LINE('',#1276,#131);
#36=LINE('',#1279,#132);
#37=LINE('',#1281,#133);
#38=LINE('',#1283,#134);
#39=LINE('',#1285,#135);
#40=LINE('',#1288,#136);
#41=LINE('',#1290,#137);
#42=LINE('',#1292,#138);
#43=LINE('',#1293,#139);
#44=LINE('',#1295,#140);
#45=LINE('',#1297,#141);
#46=LINE('',#1298,#142);
#47=LINE('',#1301,#143);
#48=LINE('',#1303,#144);
#49=LINE('',#1305,#145);
#50=LINE('',#1306,#146);
#51=LINE('',#1309,#147);
#52=LINE('',#1311,#148);
#53=LINE('',#1313,#149);
#54=LINE('',#1315,#150);
#55=LINE('',#1317,#151);
#56=LINE('',#1319,#152);
#57=LINE('',#1320,#153);
#58=LINE('',#1323,#154);
#59=LINE('',#1325,#155);
#60=LINE('',#1327,#156);
#61=LINE('',#1328,#157);
#62=LINE('',#1331,#158);
#63=LINE('',#1333,#159);
#64=LINE('',#1335,#160);
#65=LINE('',#1336,#161);
#66=LINE('',#1339,#162);
#67=LINE('',#1341,#163);
#68=LINE('',#1343,#164);
#69=LINE('',#1345,#165);
#70=LINE('',#1347,#166);
#71=LINE('',#1349,#167);
#72=LINE('',#1351,#168);
#73=LINE('',#1353,#169);
#74=LINE('',#1355,#170);
#75=LINE('',#1377,#171);
#76=LINE('',#1378,#172);
#77=LINE('',#1380,#173);
#78=LINE('',#1381,#174);
#79=LINE('',#1384,#175);
#80=LINE('',#1385,#176);
#81=LINE('',#1387,#177);
#82=LINE('',#1389,#178);
#83=LINE('',#1392,#179);
#84=LINE('',#1393,#180);
#85=LINE('',#1395,#181);
#86=LINE('',#1397,#182);
#87=LINE('',#1400,#183);
#88=LINE('',#1401,#184);
#89=LINE('',#1403,#185);
#90=LINE('',#1405,#186);
#91=LINE('',#1414,#187);
#92=LINE('',#1415,#188);
#93=LINE('',#1417,#189);
#94=LINE('',#1419,#190);
#95=LINE('',#1424,#191);
#96=LINE('',#1427,#192);
#97=LINE('',#1429,#193);
#98=LINE('',#1431,#194);
#99=LINE('',#1433,#195);
#100=LINE('',#1435,#196);
#101=LINE('',#1437,#197);
#102=LINE('',#1439,#198);
#103=LINE('',#1441,#199);
#104=LINE('',#1443,#200);
#105=LINE('',#1445,#201);
#106=LINE('',#1448,#202);
#107=LINE('',#1450,#203);
#108=LINE('',#1452,#204);
#109=LINE('',#1454,#205);
#110=LINE('',#1456,#206);
#111=LINE('',#1458,#207);
#112=LINE('',#1460,#208);
#113=LINE('',#1462,#209);
#114=LINE('',#1464,#210);
#115=LINE('',#1466,#211);
#116=LINE('',#1467,#212);
#117=LINE('',#1489,#213);
#118=LINE('',#1490,#214);
#119=VECTOR('',#1015,1.);
#120=VECTOR('',#1016,1.);
#121=VECTOR('',#1017,1.);
#122=VECTOR('',#1018,1.);
#123=VECTOR('',#1019,1.);
#124=VECTOR('',#1020,1.);
#125=VECTOR('',#1021,1.);
#126=VECTOR('',#1022,1.);
#127=VECTOR('',#1027,1.);
#128=VECTOR('',#1028,1.);
#129=VECTOR('',#1029,1.);
#130=VECTOR('',#1030,1.);
#131=VECTOR('',#1031,1.);
#132=VECTOR('',#1032,1.);
#133=VECTOR('',#1033,1.);
#134=VECTOR('',#1034,1.);
#135=VECTOR('',#1037,1.);
#136=VECTOR('',#1038,1.);
#137=VECTOR('',#1039,1.);
#138=VECTOR('',#1040,1.);
#139=VECTOR('',#1041,1.);
#140=VECTOR('',#1042,1.);
#141=VECTOR('',#1043,1.);
#142=VECTOR('',#1044,1.);
#143=VECTOR('',#1045,1.);
#144=VECTOR('',#1046,1.);
#145=VECTOR('',#1047,1.);
#146=VECTOR('',#1048,1.);
#147=VECTOR('',#1049,1.);
#148=VECTOR('',#1050,1.);
#149=VECTOR('',#1051,1.);
#150=VECTOR('',#1054,1.);
#151=VECTOR('',#1055,1.);
#152=VECTOR('',#1056,1.);
#153=VECTOR('',#1057,1.);
#154=VECTOR('',#1058,1.);
#155=VECTOR('',#1059,1.);
#156=VECTOR('',#1060,1.);
#157=VECTOR('',#1061,1.);
#158=VECTOR('',#1062,1.);
#159=VECTOR('',#1063,1.);
#160=VECTOR('',#1064,1.);
#161=VECTOR('',#1065,1.);
#162=VECTOR('',#1066,1.);
#163=VECTOR('',#1067,1.);
#164=VECTOR('',#1068,1.);
#165=VECTOR('',#1071,1.);
#166=VECTOR('',#1072,1.);
#167=VECTOR('',#1073,1.);
#168=VECTOR('',#1076,1.);
#169=VECTOR('',#1077,1.);
#170=VECTOR('',#1078,1.);
#171=VECTOR('',#1105,1.);
#172=VECTOR('',#1106,1.);
#173=VECTOR('',#1109,1.);
#174=VECTOR('',#1110,1.);
#175=VECTOR('',#1115,1.);
#176=VECTOR('',#1116,1.);
#177=VECTOR('',#1119,1.);
#178=VECTOR('',#1122,1.);
#179=VECTOR('',#1127,1.);
#180=VECTOR('',#1128,1.);
#181=VECTOR('',#1131,1.);
#182=VECTOR('',#1134,1.);
#183=VECTOR('',#1139,1.);
#184=VECTOR('',#1140,1.);
#185=VECTOR('',#1143,1.);
#186=VECTOR('',#1146,1.);
#187=VECTOR('',#1163,1.);
#188=VECTOR('',#1164,1.);
#189=VECTOR('',#1167,1.);
#190=VECTOR('',#1170,1.);
#191=VECTOR('',#1179,1.);
#192=VECTOR('',#1180,1.);
#193=VECTOR('',#1181,1.);
#194=VECTOR('',#1182,1.);
#195=VECTOR('',#1185,1.);
#196=VECTOR('',#1186,1.);
#197=VECTOR('',#1187,1.);
#198=VECTOR('',#1190,1.);
#199=VECTOR('',#1191,1.);
#200=VECTOR('',#1192,1.);
#201=VECTOR('',#1195,1.);
#202=VECTOR('',#1196,1.);
#203=VECTOR('',#1197,1.);
#204=VECTOR('',#1198,1.);
#205=VECTOR('',#1201,1.);
#206=VECTOR('',#1202,1.);
#207=VECTOR('',#1203,1.);
#208=VECTOR('',#1206,1.);
#209=VECTOR('',#1207,1.);
#210=VECTOR('',#1208,1.);
#211=VECTOR('',#1211,1.);
#212=VECTOR('',#1212,1.);
#213=VECTOR('',#1239,1.);
#214=VECTOR('',#1240,1.);
#215=ORIENTED_EDGE('',*,*,#443,.F.);
#216=ORIENTED_EDGE('',*,*,#444,.F.);
#217=ORIENTED_EDGE('',*,*,#445,.F.);
#218=ORIENTED_EDGE('',*,*,#446,.F.);
#219=ORIENTED_EDGE('',*,*,#447,.T.);
#220=ORIENTED_EDGE('',*,*,#448,.F.);
#221=ORIENTED_EDGE('',*,*,#449,.T.);
#222=ORIENTED_EDGE('',*,*,#450,.T.);
#223=ORIENTED_EDGE('',*,*,#451,.F.);
#224=ORIENTED_EDGE('',*,*,#452,.T.);
#225=ORIENTED_EDGE('',*,*,#453,.T.);
#226=ORIENTED_EDGE('',*,*,#454,.F.);
#227=ORIENTED_EDGE('',*,*,#455,.F.);
#228=ORIENTED_EDGE('',*,*,#456,.T.);
#229=ORIENTED_EDGE('',*,*,#457,.F.);
#230=ORIENTED_EDGE('',*,*,#458,.T.);
#231=ORIENTED_EDGE('',*,*,#459,.T.);
#232=ORIENTED_EDGE('',*,*,#460,.F.);
#233=ORIENTED_EDGE('',*,*,#461,.T.);
#234=ORIENTED_EDGE('',*,*,#462,.T.);
#235=ORIENTED_EDGE('',*,*,#463,.F.);
#236=ORIENTED_EDGE('',*,*,#464,.F.);
#237=ORIENTED_EDGE('',*,*,#465,.T.);
#238=ORIENTED_EDGE('',*,*,#466,.F.);
#239=ORIENTED_EDGE('',*,*,#467,.F.);
#240=ORIENTED_EDGE('',*,*,#445,.T.);
#241=ORIENTED_EDGE('',*,*,#468,.T.);
#242=ORIENTED_EDGE('',*,*,#469,.T.);
#243=ORIENTED_EDGE('',*,*,#470,.F.);
#244=ORIENTED_EDGE('',*,*,#471,.F.);
#245=ORIENTED_EDGE('',*,*,#472,.T.);
#246=ORIENTED_EDGE('',*,*,#473,.T.);
#247=ORIENTED_EDGE('',*,*,#474,.F.);
#248=ORIENTED_EDGE('',*,*,#475,.F.);
#249=ORIENTED_EDGE('',*,*,#476,.F.);
#250=ORIENTED_EDGE('',*,*,#456,.F.);
#251=ORIENTED_EDGE('',*,*,#477,.T.);
#252=ORIENTED_EDGE('',*,*,#478,.T.);
#253=ORIENTED_EDGE('',*,*,#479,.T.);
#254=ORIENTED_EDGE('',*,*,#480,.T.);
#255=ORIENTED_EDGE('',*,*,#481,.F.);
#256=ORIENTED_EDGE('',*,*,#482,.F.);
#257=ORIENTED_EDGE('',*,*,#483,.T.);
#258=ORIENTED_EDGE('',*,*,#484,.T.);
#259=ORIENTED_EDGE('',*,*,#485,.F.);
#260=ORIENTED_EDGE('',*,*,#486,.F.);
#261=ORIENTED_EDGE('',*,*,#487,.T.);
#262=ORIENTED_EDGE('',*,*,#488,.T.);
#263=ORIENTED_EDGE('',*,*,#489,.F.);
#264=ORIENTED_EDGE('',*,*,#490,.F.);
#265=ORIENTED_EDGE('',*,*,#491,.F.);
#266=ORIENTED_EDGE('',*,*,#447,.F.);
#267=ORIENTED_EDGE('',*,*,#492,.T.);
#268=ORIENTED_EDGE('',*,*,#493,.T.);
#269=ORIENTED_EDGE('',*,*,#494,.F.);
#270=ORIENTED_EDGE('',*,*,#478,.F.);
#271=ORIENTED_EDGE('',*,*,#495,.T.);
#272=ORIENTED_EDGE('',*,*,#496,.T.);
#273=ORIENTED_EDGE('',*,*,#497,.F.);
#274=ORIENTED_EDGE('',*,*,#498,.T.);
#275=ORIENTED_EDGE('',*,*,#499,.F.);
#276=ORIENTED_EDGE('',*,*,#500,.T.);
#277=ORIENTED_EDGE('',*,*,#501,.F.);
#278=ORIENTED_EDGE('',*,*,#502,.T.);
#279=ORIENTED_EDGE('',*,*,#503,.F.);
#280=ORIENTED_EDGE('',*,*,#504,.T.);
#281=ORIENTED_EDGE('',*,*,#505,.T.);
#282=ORIENTED_EDGE('',*,*,#496,.F.);
#283=ORIENTED_EDGE('',*,*,#506,.F.);
#284=ORIENTED_EDGE('',*,*,#454,.T.);
#285=ORIENTED_EDGE('',*,*,#507,.T.);
#286=ORIENTED_EDGE('',*,*,#493,.F.);
#287=ORIENTED_EDGE('',*,*,#508,.T.);
#288=ORIENTED_EDGE('',*,*,#466,.T.);
#289=ORIENTED_EDGE('',*,*,#453,.F.);
#290=ORIENTED_EDGE('',*,*,#476,.T.);
#291=ORIENTED_EDGE('',*,*,#494,.T.);
#292=ORIENTED_EDGE('',*,*,#505,.F.);
#293=ORIENTED_EDGE('',*,*,#504,.F.);
#294=ORIENTED_EDGE('',*,*,#502,.F.);
#295=ORIENTED_EDGE('',*,*,#500,.F.);
#296=ORIENTED_EDGE('',*,*,#498,.F.);
#297=ORIENTED_EDGE('',*,*,#465,.F.);
#298=ORIENTED_EDGE('',*,*,#444,.T.);
#299=ORIENTED_EDGE('',*,*,#491,.T.);
#300=ORIENTED_EDGE('',*,*,#507,.F.);
#301=ORIENTED_EDGE('',*,*,#509,.T.);
#302=ORIENTED_EDGE('',*,*,#468,.F.);
#303=ORIENTED_EDGE('',*,*,#510,.F.);
#304=ORIENTED_EDGE('',*,*,#480,.F.);
#305=ORIENTED_EDGE('',*,*,#481,.T.);
#306=ORIENTED_EDGE('',*,*,#510,.T.);
#307=ORIENTED_EDGE('',*,*,#471,.T.);
#308=ORIENTED_EDGE('',*,*,#511,.F.);
#309=ORIENTED_EDGE('',*,*,#482,.T.);
#310=ORIENTED_EDGE('',*,*,#511,.T.);
#311=ORIENTED_EDGE('',*,*,#470,.T.);
#312=ORIENTED_EDGE('',*,*,#512,.F.);
#313=ORIENTED_EDGE('',*,*,#512,.T.);
#314=ORIENTED_EDGE('',*,*,#469,.F.);
#315=ORIENTED_EDGE('',*,*,#509,.F.);
#316=ORIENTED_EDGE('',*,*,#479,.F.);
#317=ORIENTED_EDGE('',*,*,#513,.T.);
#318=ORIENTED_EDGE('',*,*,#461,.F.);
#319=ORIENTED_EDGE('',*,*,#514,.F.);
#320=ORIENTED_EDGE('',*,*,#484,.F.);
#321=ORIENTED_EDGE('',*,*,#485,.T.);
#322=ORIENTED_EDGE('',*,*,#514,.T.);
#323=ORIENTED_EDGE('',*,*,#464,.T.);
#324=ORIENTED_EDGE('',*,*,#515,.F.);
#325=ORIENTED_EDGE('',*,*,#486,.T.);
#326=ORIENTED_EDGE('',*,*,#515,.T.);
#327=ORIENTED_EDGE('',*,*,#463,.T.);
#328=ORIENTED_EDGE('',*,*,#516,.F.);
#329=ORIENTED_EDGE('',*,*,#516,.T.);
#330=ORIENTED_EDGE('',*,*,#462,.F.);
#331=ORIENTED_EDGE('',*,*,#513,.F.);
#332=ORIENTED_EDGE('',*,*,#483,.F.);
#333=ORIENTED_EDGE('',*,*,#517,.T.);
#334=ORIENTED_EDGE('',*,*,#472,.F.);
#335=ORIENTED_EDGE('',*,*,#518,.F.);
#336=ORIENTED_EDGE('',*,*,#488,.F.);
#337=ORIENTED_EDGE('',*,*,#489,.T.);
#338=ORIENTED_EDGE('',*,*,#518,.T.);
#339=ORIENTED_EDGE('',*,*,#475,.T.);
#340=ORIENTED_EDGE('',*,*,#519,.F.);
#341=ORIENTED_EDGE('',*,*,#490,.T.);
#342=ORIENTED_EDGE('',*,*,#519,.T.);
#343=ORIENTED_EDGE('',*,*,#474,.T.);
#344=ORIENTED_EDGE('',*,*,#520,.F.);
#345=ORIENTED_EDGE('',*,*,#520,.T.);
#346=ORIENTED_EDGE('',*,*,#473,.F.);
#347=ORIENTED_EDGE('',*,*,#517,.F.);
#348=ORIENTED_EDGE('',*,*,#487,.F.);
#349=ORIENTED_EDGE('',*,*,#497,.T.);
#350=ORIENTED_EDGE('',*,*,#499,.T.);
#351=ORIENTED_EDGE('',*,*,#501,.T.);
#352=ORIENTED_EDGE('',*,*,#503,.T.);
#353=ORIENTED_EDGE('',*,*,#477,.F.);
#354=ORIENTED_EDGE('',*,*,#455,.T.);
#355=ORIENTED_EDGE('',*,*,#506,.T.);
#356=ORIENTED_EDGE('',*,*,#495,.F.);
#357=ORIENTED_EDGE('',*,*,#492,.F.);
#358=ORIENTED_EDGE('',*,*,#446,.T.);
#359=ORIENTED_EDGE('',*,*,#467,.T.);
#360=ORIENTED_EDGE('',*,*,#508,.F.);
#361=ORIENTED_EDGE('',*,*,#457,.T.);
#362=ORIENTED_EDGE('',*,*,#521,.T.);
#363=ORIENTED_EDGE('',*,*,#449,.F.);
#364=ORIENTED_EDGE('',*,*,#522,.F.);
#365=ORIENTED_EDGE('',*,*,#522,.T.);
#366=ORIENTED_EDGE('',*,*,#448,.T.);
#367=ORIENTED_EDGE('',*,*,#523,.F.);
#368=ORIENTED_EDGE('',*,*,#458,.F.);
#369=ORIENTED_EDGE('',*,*,#523,.T.);
#370=ORIENTED_EDGE('',*,*,#451,.T.);
#371=ORIENTED_EDGE('',*,*,#524,.F.);
#372=ORIENTED_EDGE('',*,*,#459,.F.);
#373=ORIENTED_EDGE('',*,*,#460,.T.);
#374=ORIENTED_EDGE('',*,*,#524,.T.);
#375=ORIENTED_EDGE('',*,*,#450,.F.);
#376=ORIENTED_EDGE('',*,*,#521,.F.);
#377=ORIENTED_EDGE('',*,*,#443,.T.);
#378=ORIENTED_EDGE('',*,*,#452,.F.);
#379=ORIENTED_EDGE('',*,*,#525,.F.);
#380=ORIENTED_EDGE('',*,*,#526,.F.);
#381=ORIENTED_EDGE('',*,*,#527,.T.);
#382=ORIENTED_EDGE('',*,*,#528,.T.);
#383=ORIENTED_EDGE('',*,*,#529,.T.);
#384=ORIENTED_EDGE('',*,*,#530,.F.);
#385=ORIENTED_EDGE('',*,*,#531,.F.);
#386=ORIENTED_EDGE('',*,*,#526,.T.);
#387=ORIENTED_EDGE('',*,*,#532,.T.);
#388=ORIENTED_EDGE('',*,*,#533,.F.);
#389=ORIENTED_EDGE('',*,*,#534,.F.);
#390=ORIENTED_EDGE('',*,*,#530,.T.);
#391=ORIENTED_EDGE('',*,*,#535,.F.);
#392=ORIENTED_EDGE('',*,*,#536,.F.);
#393=ORIENTED_EDGE('',*,*,#537,.T.);
#394=ORIENTED_EDGE('',*,*,#538,.T.);
#395=ORIENTED_EDGE('',*,*,#539,.T.);
#396=ORIENTED_EDGE('',*,*,#540,.F.);
#397=ORIENTED_EDGE('',*,*,#541,.F.);
#398=ORIENTED_EDGE('',*,*,#536,.T.);
#399=ORIENTED_EDGE('',*,*,#542,.T.);
#400=ORIENTED_EDGE('',*,*,#543,.F.);
#401=ORIENTED_EDGE('',*,*,#544,.F.);
#402=ORIENTED_EDGE('',*,*,#540,.T.);
#403=ORIENTED_EDGE('',*,*,#545,.F.);
#404=ORIENTED_EDGE('',*,*,#538,.F.);
#405=ORIENTED_EDGE('',*,*,#546,.T.);
#406=ORIENTED_EDGE('',*,*,#543,.T.);
#407=ORIENTED_EDGE('',*,*,#547,.T.);
#408=ORIENTED_EDGE('',*,*,#548,.F.);
#409=ORIENTED_EDGE('',*,*,#549,.T.);
#410=ORIENTED_EDGE('',*,*,#550,.F.);
#411=ORIENTED_EDGE('',*,*,#551,.T.);
#412=ORIENTED_EDGE('',*,*,#552,.F.);
#413=ORIENTED_EDGE('',*,*,#553,.T.);
#414=ORIENTED_EDGE('',*,*,#554,.F.);
#415=ORIENTED_EDGE('',*,*,#555,.F.);
#416=ORIENTED_EDGE('',*,*,#528,.F.);
#417=ORIENTED_EDGE('',*,*,#556,.T.);
#418=ORIENTED_EDGE('',*,*,#533,.T.);
#419=ORIENTED_EDGE('',*,*,#553,.F.);
#420=ORIENTED_EDGE('',*,*,#551,.F.);
#421=ORIENTED_EDGE('',*,*,#549,.F.);
#422=ORIENTED_EDGE('',*,*,#547,.F.);
#423=ORIENTED_EDGE('',*,*,#537,.F.);
#424=ORIENTED_EDGE('',*,*,#541,.T.);
#425=ORIENTED_EDGE('',*,*,#544,.T.);
#426=ORIENTED_EDGE('',*,*,#546,.F.);
#427=ORIENTED_EDGE('',*,*,#527,.F.);
#428=ORIENTED_EDGE('',*,*,#531,.T.);
#429=ORIENTED_EDGE('',*,*,#534,.T.);
#430=ORIENTED_EDGE('',*,*,#556,.F.);
#431=ORIENTED_EDGE('',*,*,#554,.T.);
#432=ORIENTED_EDGE('',*,*,#552,.T.);
#433=ORIENTED_EDGE('',*,*,#550,.T.);
#434=ORIENTED_EDGE('',*,*,#548,.T.);
#435=ORIENTED_EDGE('',*,*,#535,.T.);
#436=ORIENTED_EDGE('',*,*,#545,.T.);
#437=ORIENTED_EDGE('',*,*,#542,.F.);
#438=ORIENTED_EDGE('',*,*,#539,.F.);
#439=ORIENTED_EDGE('',*,*,#525,.T.);
#440=ORIENTED_EDGE('',*,*,#555,.T.);
#441=ORIENTED_EDGE('',*,*,#532,.F.);
#442=ORIENTED_EDGE('',*,*,#529,.F.);
#443=EDGE_CURVE('',#557,#557,#639,.T.);
#444=EDGE_CURVE('',#558,#559,#23,.T.);
#445=EDGE_CURVE('',#560,#558,#24,.T.);
#446=EDGE_CURVE('',#561,#560,#25,.T.);
#447=EDGE_CURVE('',#561,#559,#26,.T.);
#448=EDGE_CURVE('',#562,#563,#27,.T.);
#449=EDGE_CURVE('',#562,#564,#28,.T.);
#450=EDGE_CURVE('',#564,#565,#29,.T.);
#451=EDGE_CURVE('',#563,#565,#30,.T.);
#452=EDGE_CURVE('',#566,#566,#640,.T.);
#453=EDGE_CURVE('',#567,#568,#31,.T.);
#454=EDGE_CURVE('',#569,#568,#32,.T.);
#455=EDGE_CURVE('',#570,#569,#33,.T.);
#456=EDGE_CURVE('',#570,#567,#34,.T.);
#457=EDGE_CURVE('',#571,#572,#35,.T.);
#458=EDGE_CURVE('',#571,#573,#36,.T.);
#459=EDGE_CURVE('',#573,#574,#37,.T.);
#460=EDGE_CURVE('',#572,#574,#38,.T.);
#461=EDGE_CURVE('',#575,#576,#39,.T.);
#462=EDGE_CURVE('',#576,#577,#40,.T.);
#463=EDGE_CURVE('',#578,#577,#41,.T.);
#464=EDGE_CURVE('',#575,#578,#42,.T.);
#465=EDGE_CURVE('',#558,#579,#43,.T.);
#466=EDGE_CURVE('',#580,#579,#44,.T.);
#467=EDGE_CURVE('',#560,#580,#45,.T.);
#468=EDGE_CURVE('',#581,#582,#46,.T.);
#469=EDGE_CURVE('',#582,#583,#47,.T.);
#470=EDGE_CURVE('',#584,#583,#48,.T.);
#471=EDGE_CURVE('',#581,#584,#49,.T.);
#472=EDGE_CURVE('',#585,#586,#50,.T.);
#473=EDGE_CURVE('',#586,#587,#51,.T.);
#474=EDGE_CURVE('',#588,#587,#52,.T.);
#475=EDGE_CURVE('',#585,#588,#53,.T.);
#476=EDGE_CURVE('',#567,#589,#54,.T.);
#477=EDGE_CURVE('',#570,#590,#55,.T.);
#478=EDGE_CURVE('',#590,#589,#56,.T.);
#479=EDGE_CURVE('',#591,#592,#57,.T.);
#480=EDGE_CURVE('',#592,#593,#58,.T.);
#481=EDGE_CURVE('',#594,#593,#59,.T.);
#482=EDGE_CURVE('',#591,#594,#60,.T.);
#483=EDGE_CURVE('',#595,#596,#61,.T.);
#484=EDGE_CURVE('',#596,#597,#62,.T.);
#485=EDGE_CURVE('',#598,#597,#63,.T.);
#486=EDGE_CURVE('',#595,#598,#64,.T.);
#487=EDGE_CURVE('',#599,#600,#65,.T.);
#488=EDGE_CURVE('',#600,#601,#66,.T.);
#489=EDGE_CURVE('',#602,#601,#67,.T.);
#490=EDGE_CURVE('',#599,#602,#68,.T.);
#491=EDGE_CURVE('',#559,#603,#69,.T.);
#492=EDGE_CURVE('',#561,#604,#70,.T.);
#493=EDGE_CURVE('',#604,#603,#71,.T.);
#494=EDGE_CURVE('',#589,#605,#72,.T.);
#495=EDGE_CURVE('',#590,#606,#73,.T.);
#496=EDGE_CURVE('',#606,#605,#74,.T.);
#497=EDGE_CURVE('',#607,#607,#641,.T.);
#498=EDGE_CURVE('',#608,#608,#642,.T.);
#499=EDGE_CURVE('',#609,#609,#643,.T.);
#500=EDGE_CURVE('',#610,#610,#644,.T.);
#501=EDGE_CURVE('',#611,#611,#645,.T.);
#502=EDGE_CURVE('',#612,#612,#646,.T.);
#503=EDGE_CURVE('',#613,#613,#647,.T.);
#504=EDGE_CURVE('',#614,#614,#648,.T.);
#505=EDGE_CURVE('',#568,#605,#75,.T.);
#506=EDGE_CURVE('',#569,#606,#76,.T.);
#507=EDGE_CURVE('',#579,#603,#77,.T.);
#508=EDGE_CURVE('',#604,#580,#78,.T.);
#509=EDGE_CURVE('',#592,#582,#79,.T.);
#510=EDGE_CURVE('',#593,#581,#80,.T.);
#511=EDGE_CURVE('',#594,#584,#81,.T.);
#512=EDGE_CURVE('',#591,#583,#82,.T.);
#513=EDGE_CURVE('',#596,#576,#83,.T.);
#514=EDGE_CURVE('',#597,#575,#84,.T.);
#515=EDGE_CURVE('',#598,#578,#85,.T.);
#516=EDGE_CURVE('',#595,#577,#86,.T.);
#517=EDGE_CURVE('',#600,#586,#87,.T.);
#518=EDGE_CURVE('',#601,#585,#88,.T.);
#519=EDGE_CURVE('',#602,#588,#89,.T.);
#520=EDGE_CURVE('',#599,#587,#90,.T.);
#521=EDGE_CURVE('',#572,#564,#91,.T.);
#522=EDGE_CURVE('',#571,#562,#92,.T.);
#523=EDGE_CURVE('',#573,#563,#93,.T.);
#524=EDGE_CURVE('',#574,#565,#94,.T.);
#525=EDGE_CURVE('',#615,#616,#95,.T.);
#526=EDGE_CURVE('',#617,#615,#96,.T.);
#527=EDGE_CURVE('',#617,#618,#97,.T.);
#528=EDGE_CURVE('',#618,#616,#98,.T.);
#529=EDGE_CURVE('',#615,#619,#99,.T.);
#530=EDGE_CURVE('',#620,#619,#100,.T.);
#531=EDGE_CURVE('',#617,#620,#101,.T.);
#532=EDGE_CURVE('',#619,#621,#102,.T.);
#533=EDGE_CURVE('',#622,#621,#103,.T.);
#534=EDGE_CURVE('',#620,#622,#104,.T.);
#535=EDGE_CURVE('',#623,#624,#105,.T.);
#536=EDGE_CURVE('',#625,#623,#106,.T.);
#537=EDGE_CURVE('',#625,#626,#107,.T.);
#538=EDGE_CURVE('',#626,#624,#108,.T.);
#539=EDGE_CURVE('',#623,#627,#109,.T.);
#540=EDGE_CURVE('',#628,#627,#110,.T.);
#541=EDGE_CURVE('',#625,#628,#111,.T.);
#542=EDGE_CURVE('',#627,#629,#112,.T.);
#543=EDGE_CURVE('',#630,#629,#113,.T.);
#544=EDGE_CURVE('',#628,#630,#114,.T.);
#545=EDGE_CURVE('',#624,#629,#115,.T.);
#546=EDGE_CURVE('',#626,#630,#116,.T.);
#547=EDGE_CURVE('',#631,#631,#649,.T.);
#548=EDGE_CURVE('',#632,#632,#650,.T.);
#549=EDGE_CURVE('',#633,#633,#651,.T.);
#550=EDGE_CURVE('',#634,#634,#652,.T.);
#551=EDGE_CURVE('',#635,#635,#653,.T.);
#552=EDGE_CURVE('',#636,#636,#654,.T.);
#553=EDGE_CURVE('',#637,#637,#655,.T.);
#554=EDGE_CURVE('',#638,#638,#656,.T.);
#555=EDGE_CURVE('',#616,#621,#117,.T.);
#556=EDGE_CURVE('',#618,#622,#118,.T.);
#557=VERTEX_POINT('',#1248);
#558=VERTEX_POINT('',#1250);
#559=VERTEX_POINT('',#1251);
#560=VERTEX_POINT('',#1253);
#561=VERTEX_POINT('',#1255);
#562=VERTEX_POINT('',#1258);
#563=VERTEX_POINT('',#1259);
#564=VERTEX_POINT('',#1261);
#565=VERTEX_POINT('',#1263);
#566=VERTEX_POINT('',#1267);
#567=VERTEX_POINT('',#1269);
#568=VERTEX_POINT('',#1270);
#569=VERTEX_POINT('',#1272);
#570=VERTEX_POINT('',#1274);
#571=VERTEX_POINT('',#1277);
#572=VERTEX_POINT('',#1278);
#573=VERTEX_POINT('',#1280);
#574=VERTEX_POINT('',#1282);
#575=VERTEX_POINT('',#1286);
#576=VERTEX_POINT('',#1287);
#577=VERTEX_POINT('',#1289);
#578=VERTEX_POINT('',#1291);
#579=VERTEX_POINT('',#1294);
#580=VERTEX_POINT('',#1296);
#581=VERTEX_POINT('',#1299);
#582=VERTEX_POINT('',#1300);
#583=VERTEX_POINT('',#1302);
#584=VERTEX_POINT('',#1304);
#585=VERTEX_POINT('',#1307);
#586=VERTEX_POINT('',#1308);
#587=VERTEX_POINT('',#1310);
#588=VERTEX_POINT('',#1312);
#589=VERTEX_POINT('',#1316);
#590=VERTEX_POINT('',#1318);
#591=VERTEX_POINT('',#1321);
#592=VERTEX_POINT('',#1322);
#593=VERTEX_POINT('',#1324);
#594=VERTEX_POINT('',#1326);
#595=VERTEX_POINT('',#1329);
#596=VERTEX_POINT('',#1330);
#597=VERTEX_POINT('',#1332);
#598=VERTEX_POINT('',#1334);
#599=VERTEX_POINT('',#1337);
#600=VERTEX_POINT('',#1338);
#601=VERTEX_POINT('',#1340);
#602=VERTEX_POINT('',#1342);
#603=VERTEX_POINT('',#1346);
#604=VERTEX_POINT('',#1348);
#605=VERTEX_POINT('',#1352);
#606=VERTEX_POINT('',#1354);
#607=VERTEX_POINT('',#1358);
#608=VERTEX_POINT('',#1360);
#609=VERTEX_POINT('',#1363);
#610=VERTEX_POINT('',#1365);
#611=VERTEX_POINT('',#1368);
#612=VERTEX_POINT('',#1370);
#613=VERTEX_POINT('',#1373);
#614=VERTEX_POINT('',#1375);
#615=VERTEX_POINT('',#1425);
#616=VERTEX_POINT('',#1426);
#617=VERTEX_POINT('',#1428);
#618=VERTEX_POINT('',#1430);
#619=VERTEX_POINT('',#1434);
#620=VERTEX_POINT('',#1436);
#621=VERTEX_POINT('',#1440);
#622=VERTEX_POINT('',#1442);
#623=VERTEX_POINT('',#1446);
#624=VERTEX_POINT('',#1447);
#625=VERTEX_POINT('',#1449);
#626=VERTEX_POINT('',#1451);
#627=VERTEX_POINT('',#1455);
#628=VERTEX_POINT('',#1457);
#629=VERTEX_POINT('',#1461);
#630=VERTEX_POINT('',#1463);
#631=VERTEX_POINT('',#1470);
#632=VERTEX_POINT('',#1472);
#633=VERTEX_POINT('',#1475);
#634=VERTEX_POINT('',#1477);
#635=VERTEX_POINT('',#1480);
#636=VERTEX_POINT('',#1482);
#637=VERTEX_POINT('',#1485);
#638=VERTEX_POINT('',#1487);
#639=CIRCLE('',#941,0.00359144847189345);
#640=CIRCLE('',#943,0.00359144847189345);
#641=CIRCLE('',#949,0.00198810644556828);
#642=CIRCLE('',#950,0.00198810644556828);
#643=CIRCLE('',#952,0.00198602862783555);
#644=CIRCLE('',#953,0.00198602862783555);
#645=CIRCLE('',#955,0.00198602862783555);
#646=CIRCLE('',#956,0.00198602862783555);
#647=CIRCLE('',#958,0.00198602862783555);
#648=CIRCLE('',#959,0.00198602862783555);
#649=CIRCLE('',#995,0.00202134863334344);
#650=CIRCLE('',#996,0.00202134863334344);
#651=CIRCLE('',#998,0.00199546215952077);
#652=CIRCLE('',#999,0.00199546215952077);
#653=CIRCLE('',#1001,0.00197254256573917);
#654=CIRCLE('',#1002,0.00197254256573917);
#655=CIRCLE('',#1004,0.00198707272451138);
#656=CIRCLE('',#1005,0.00198707272451138);
#657=EDGE_LOOP('',(#215));
#658=EDGE_LOOP('',(#216,#217,#218,#219));
#659=EDGE_LOOP('',(#220,#221,#222,#223));
#660=EDGE_LOOP('',(#224));
#661=EDGE_LOOP('',(#225,#226,#227,#228));
#662=EDGE_LOOP('',(#229,#230,#231,#232));
#663=EDGE_LOOP('',(#233,#234,#235,#236));
#664=EDGE_LOOP('',(#237,#238,#239,#240));
#665=EDGE_LOOP('',(#241,#242,#243,#244));
#666=EDGE_LOOP('',(#245,#246,#247,#248));
#667=EDGE_LOOP('',(#249,#250,#251,#252));
#668=EDGE_LOOP('',(#253,#254,#255,#256));
#669=EDGE_LOOP('',(#257,#258,#259,#260));
#670=EDGE_LOOP('',(#261,#262,#263,#264));
#671=EDGE_LOOP('',(#265,#266,#267,#268));
#672=EDGE_LOOP('',(#269,#270,#271,#272));
#673=EDGE_LOOP('',(#273));
#674=EDGE_LOOP('',(#274));
#675=EDGE_LOOP('',(#275));
#676=EDGE_LOOP('',(#276));
#677=EDGE_LOOP('',(#277));
#678=EDGE_LOOP('',(#278));
#679=EDGE_LOOP('',(#279));
#680=EDGE_LOOP('',(#280));
#681=EDGE_LOOP('',(#281,#282,#283,#284));
#682=EDGE_LOOP('',(#285,#286,#287,#288));
#683=EDGE_LOOP('',(#289,#290,#291,#292));
#684=EDGE_LOOP('',(#293));
#685=EDGE_LOOP('',(#294));
#686=EDGE_LOOP('',(#295));
#687=EDGE_LOOP('',(#296));
#688=EDGE_LOOP('',(#297,#298,#299,#300));
#689=EDGE_LOOP('',(#301,#302,#303,#304));
#690=EDGE_LOOP('',(#305,#306,#307,#308));
#691=EDGE_LOOP('',(#309,#310,#311,#312));
#692=EDGE_LOOP('',(#313,#314,#315,#316));
#693=EDGE_LOOP('',(#317,#318,#319,#320));
#694=EDGE_LOOP('',(#321,#322,#323,#324));
#695=EDGE_LOOP('',(#325,#326,#327,#328));
#696=EDGE_LOOP('',(#329,#330,#331,#332));
#697=EDGE_LOOP('',(#333,#334,#335,#336));
#698=EDGE_LOOP('',(#337,#338,#339,#340));
#699=EDGE_LOOP('',(#341,#342,#343,#344));
#700=EDGE_LOOP('',(#345,#346,#347,#348));
#701=EDGE_LOOP('',(#349));
#702=EDGE_LOOP('',(#350));
#703=EDGE_LOOP('',(#351));
#704=EDGE_LOOP('',(#352));
#705=EDGE_LOOP('',(#353,#354,#355,#356));
#706=EDGE_LOOP('',(#357,#358,#359,#360));
#707=EDGE_LOOP('',(#361,#362,#363,#364));
#708=EDGE_LOOP('',(#365,#366,#367,#368));
#709=EDGE_LOOP('',(#369,#370,#371,#372));
#710=EDGE_LOOP('',(#373,#374,#375,#376));
#711=EDGE_LOOP('',(#377));
#712=EDGE_LOOP('',(#378));
#713=EDGE_LOOP('',(#379,#380,#381,#382));
#714=EDGE_LOOP('',(#383,#384,#385,#386));
#715=EDGE_LOOP('',(#387,#388,#389,#390));
#716=EDGE_LOOP('',(#391,#392,#393,#394));
#717=EDGE_LOOP('',(#395,#396,#397,#398));
#718=EDGE_LOOP('',(#399,#400,#401,#402));
#719=EDGE_LOOP('',(#403,#404,#405,#406));
#720=EDGE_LOOP('',(#407));
#721=EDGE_LOOP('',(#408));
#722=EDGE_LOOP('',(#409));
#723=EDGE_LOOP('',(#410));
#724=EDGE_LOOP('',(#411));
#725=EDGE_LOOP('',(#412));
#726=EDGE_LOOP('',(#413));
#727=EDGE_LOOP('',(#414));
#728=EDGE_LOOP('',(#415,#416,#417,#418));
#729=EDGE_LOOP('',(#419));
#730=EDGE_LOOP('',(#420));
#731=EDGE_LOOP('',(#421));
#732=EDGE_LOOP('',(#422));
#733=EDGE_LOOP('',(#423,#424,#425,#426));
#734=EDGE_LOOP('',(#427,#428,#429,#430));
#735=EDGE_LOOP('',(#431));
#736=EDGE_LOOP('',(#432));
#737=EDGE_LOOP('',(#433));
#738=EDGE_LOOP('',(#434));
#739=EDGE_LOOP('',(#435,#436,#437,#438));
#740=EDGE_LOOP('',(#439,#440,#441,#442));
#741=FACE_BOUND('',#657,.T.);
#742=FACE_BOUND('',#658,.T.);
#743=FACE_BOUND('',#659,.T.);
#744=FACE_BOUND('',#660,.T.);
#745=FACE_BOUND('',#661,.T.);
#746=FACE_BOUND('',#662,.T.);
#747=FACE_BOUND('',#663,.T.);
#748=FACE_BOUND('',#664,.T.);
#749=FACE_BOUND('',#665,.T.);
#750=FACE_BOUND('',#666,.T.);
#751=FACE_BOUND('',#667,.T.);
#752=FACE_BOUND('',#668,.T.);
#753=FACE_BOUND('',#669,.T.);
#754=FACE_BOUND('',#670,.T.);
#755=FACE_BOUND('',#671,.T.);
#756=FACE_BOUND('',#672,.T.);
#757=FACE_BOUND('',#673,.T.);
#758=FACE_BOUND('',#674,.T.);
#759=FACE_BOUND('',#675,.T.);
#760=FACE_BOUND('',#676,.T.);
#761=FACE_BOUND('',#677,.T.);
#762=FACE_BOUND('',#678,.T.);
#763=FACE_BOUND('',#679,.T.);
#764=FACE_BOUND('',#680,.T.);
#765=FACE_BOUND('',#681,.T.);
#766=FACE_BOUND('',#682,.T.);
#767=FACE_BOUND('',#683,.T.);
#768=FACE_BOUND('',#684,.T.);
#769=FACE_BOUND('',#685,.T.);
#770=FACE_BOUND('',#686,.T.);
#771=FACE_BOUND('',#687,.T.);
#772=FACE_BOUND('',#688,.T.);
#773=FACE_BOUND('',#689,.T.);
#774=FACE_BOUND('',#690,.T.);
#775=FACE_BOUND('',#691,.T.);
#776=FACE_BOUND('',#692,.T.);
#777=FACE_BOUND('',#693,.T.);
#778=FACE_BOUND('',#694,.T.);
#779=FACE_BOUND('',#695,.T.);
#780=FACE_BOUND('',#696,.T.);
#781=FACE_BOUND('',#697,.T.);
#782=FACE_BOUND('',#698,.T.);
#783=FACE_BOUND('',#699,.T.);
#784=FACE_BOUND('',#700,.T.);
#785=FACE_BOUND('',#701,.T.);
#786=FACE_BOUND('',#702,.T.);
#787=FACE_BOUND('',#703,.T.);
#788=FACE_BOUND('',#704,.T.);
#789=FACE_BOUND('',#705,.T.);
#790=FACE_BOUND('',#706,.T.);
#791=FACE_BOUND('',#707,.T.);
#792=FACE_BOUND('',#708,.T.);
#793=FACE_BOUND('',#709,.T.);
#794=FACE_BOUND('',#710,.T.);
#795=FACE_BOUND('',#711,.T.);
#796=FACE_BOUND('',#712,.T.);
#797=FACE_BOUND('',#713,.T.);
#798=FACE_BOUND('',#714,.T.);
#799=FACE_BOUND('',#715,.T.);
#800=FACE_BOUND('',#716,.T.);
#801=FACE_BOUND('',#717,.T.);
#802=FACE_BOUND('',#718,.T.);
#803=FACE_BOUND('',#719,.T.);
#804=FACE_BOUND('',#720,.T.);
#805=FACE_BOUND('',#721,.T.);
#806=FACE_BOUND('',#722,.T.);
#807=FACE_BOUND('',#723,.T.);
#808=FACE_BOUND('',#724,.T.);
#809=FACE_BOUND('',#725,.T.);
#810=FACE_BOUND('',#726,.T.);
#811=FACE_BOUND('',#727,.T.);
#812=FACE_BOUND('',#728,.T.);
#813=FACE_BOUND('',#729,.T.);
#814=FACE_BOUND('',#730,.T.);
#815=FACE_BOUND('',#731,.T.);
#816=FACE_BOUND('',#732,.T.);
#817=FACE_BOUND('',#733,.T.);
#818=FACE_BOUND('',#734,.T.);
#819=FACE_BOUND('',#735,.T.);
#820=FACE_BOUND('',#736,.T.);
#821=FACE_BOUND('',#737,.T.);
#822=FACE_BOUND('',#738,.T.);
#823=FACE_BOUND('',#739,.T.);
#824=FACE_BOUND('',#740,.T.);
#825=PLANE('',#940);
#826=PLANE('',#942);
#827=PLANE('',#944);
#828=PLANE('',#945);
#829=PLANE('',#946);
#830=PLANE('',#947);
#831=PLANE('',#960);
#832=PLANE('',#961);
#833=PLANE('',#962);
#834=PLANE('',#963);
#835=PLANE('',#964);
#836=PLANE('',#965);
#837=PLANE('',#966);
#838=PLANE('',#967);
#839=PLANE('',#968);
#840=PLANE('',#969);
#841=PLANE('',#970);
#842=PLANE('',#971);
#843=PLANE('',#972);
#844=PLANE('',#973);
#845=PLANE('',#974);
#846=PLANE('',#975);
#847=PLANE('',#976);
#848=PLANE('',#977);
#849=PLANE('',#978);
#850=PLANE('',#979);
#851=PLANE('',#980);
#852=PLANE('',#981);
#853=PLANE('',#982);
#854=PLANE('',#983);
#855=PLANE('',#984);
#856=PLANE('',#987);
#857=PLANE('',#988);
#858=PLANE('',#989);
#859=PLANE('',#990);
#860=PLANE('',#991);
#861=PLANE('',#992);
#862=PLANE('',#993);
#863=PLANE('',#1006);
#864=PLANE('',#1007);
#865=PLANE('',#1008);
#866=ADVANCED_FACE('',(#741,#742,#743),#825,.T.);
#867=ADVANCED_FACE('',(#744,#745,#746),#826,.F.);
#868=ADVANCED_FACE('',(#747,#748,#749,#750),#827,.F.);
#869=ADVANCED_FACE('',(#751,#752,#753,#754),#828,.T.);
#870=ADVANCED_FACE('',(#755),#829,.T.);
#871=ADVANCED_FACE('',(#756),#830,.T.);
#872=ADVANCED_FACE('',(#757,#758),#14,.F.);
#873=ADVANCED_FACE('',(#759,#760),#15,.F.);
#874=ADVANCED_FACE('',(#761,#762),#16,.F.);
#875=ADVANCED_FACE('',(#763,#764),#17,.F.);
#876=ADVANCED_FACE('',(#765),#831,.F.);
#877=ADVANCED_FACE('',(#766),#832,.F.);
#878=ADVANCED_FACE('',(#767,#768,#769,#770,#771,#772),#833,.T.);
#879=ADVANCED_FACE('',(#773),#834,.T.);
#880=ADVANCED_FACE('',(#774),#835,.F.);
#881=ADVANCED_FACE('',(#775),#836,.F.);
#882=ADVANCED_FACE('',(#776),#837,.T.);
#883=ADVANCED_FACE('',(#777),#838,.T.);
#884=ADVANCED_FACE('',(#778),#839,.F.);
#885=ADVANCED_FACE('',(#779),#840,.F.);
#886=ADVANCED_FACE('',(#780),#841,.T.);
#887=ADVANCED_FACE('',(#781),#842,.T.);
#888=ADVANCED_FACE('',(#782),#843,.F.);
#889=ADVANCED_FACE('',(#783),#844,.F.);
#890=ADVANCED_FACE('',(#784),#845,.T.);
#891=ADVANCED_FACE('',(#785),#846,.F.);
#892=ADVANCED_FACE('',(#786),#847,.F.);
#893=ADVANCED_FACE('',(#787),#848,.F.);
#894=ADVANCED_FACE('',(#788),#849,.F.);
#895=ADVANCED_FACE('',(#789),#850,.F.);
#896=ADVANCED_FACE('',(#790),#851,.T.);
#897=ADVANCED_FACE('',(#791),#852,.T.);
#898=ADVANCED_FACE('',(#792),#853,.F.);
#899=ADVANCED_FACE('',(#793),#854,.F.);
#900=ADVANCED_FACE('',(#794),#855,.T.);
#901=ADVANCED_FACE('',(#795,#796),#18,.F.);
#902=ADVANCED_FACE('',(#797),#856,.T.);
#903=ADVANCED_FACE('',(#798),#857,.F.);
#904=ADVANCED_FACE('',(#799),#858,.F.);
#905=ADVANCED_FACE('',(#800),#859,.T.);
#906=ADVANCED_FACE('',(#801),#860,.F.);
#907=ADVANCED_FACE('',(#802),#861,.F.);
#908=ADVANCED_FACE('',(#803),#862,.T.);
#909=ADVANCED_FACE('',(#804,#805),#19,.F.);
#910=ADVANCED_FACE('',(#806,#807),#20,.F.);
#911=ADVANCED_FACE('',(#808,#809),#21,.F.);
#912=ADVANCED_FACE('',(#810,#811),#22,.F.);
#913=ADVANCED_FACE('',(#812),#863,.T.);
#914=ADVANCED_FACE('',(#813,#814,#815,#816,#817,#818),#864,.T.);
#915=ADVANCED_FACE('',(#819,#820,#821,#822,#823,#824),#865,.F.);
#916=CLOSED_SHELL('',(#866,#867,#868,#869,#870,#871,#872,#873,#874,#875,
#876,#877,#878,#879,#880,#881,#882,#883,#884,#885,#886,#887,#888,#889,#890,
#891,#892,#893,#894,#895,#896,#897,#898,#899,#900,#901));
#917=CLOSED_SHELL('',(#902,#903,#904,#905,#906,#907,#908,#909,#910,#911,
#912,#913,#914,#915));
#918=STYLED_ITEM('',(#920),#933);
#919=STYLED_ITEM('',(#921),#934);
#920=PRESENTATION_STYLE_ASSIGNMENT((#922));
#921=PRESENTATION_STYLE_ASSIGNMENT((#923));
#922=SURFACE_STYLE_USAGE(.BOTH.,#924);
#923=SURFACE_STYLE_USAGE(.BOTH.,#925);
#924=SURFACE_SIDE_STYLE('',(#926));
#925=SURFACE_SIDE_STYLE('',(#927));
#926=SURFACE_STYLE_FILL_AREA(#928);
#927=SURFACE_STYLE_FILL_AREA(#929);
#928=FILL_AREA_STYLE('',(#930));
#929=FILL_AREA_STYLE('',(#931));
#930=FILL_AREA_STYLE_COLOUR('',#932);
#931=FILL_AREA_STYLE_COLOUR('',#932);
#932=COLOUR_RGB('',0.498039215686275,0.498039215686275,0.498039215686275);
#933=MANIFOLD_SOLID_BREP('Part 1',#916);
#934=MANIFOLD_SOLID_BREP('Part 2',#917);
#935=SHAPE_DEFINITION_REPRESENTATION(#1505,#937);
#936=SHAPE_DEFINITION_REPRESENTATION(#1506,#938);
#937=SHAPE_REPRESENTATION('Part 1',(#939),#1495);
#938=SHAPE_REPRESENTATION('Part 2',(#986),#1496);
#939=AXIS2_PLACEMENT_3D('',#1245,#1009,#1010);
#940=AXIS2_PLACEMENT_3D('',#1246,#1011,#1012);
#941=AXIS2_PLACEMENT_3D('',#1247,#1013,#1014);
#942=AXIS2_PLACEMENT_3D('',#1265,#1023,#1024);
#943=AXIS2_PLACEMENT_3D('',#1266,#1025,#1026);
#944=AXIS2_PLACEMENT_3D('',#1284,#1035,#1036);
#945=AXIS2_PLACEMENT_3D('',#1314,#1052,#1053);
#946=AXIS2_PLACEMENT_3D('',#1344,#1069,#1070);
#947=AXIS2_PLACEMENT_3D('',#1350,#1074,#1075);
#948=AXIS2_PLACEMENT_3D('',#1356,#1079,#1080);
#949=AXIS2_PLACEMENT_3D('',#1357,#1081,#1082);
#950=AXIS2_PLACEMENT_3D('',#1359,#1083,#1084);
#951=AXIS2_PLACEMENT_3D('',#1361,#1085,#1086);
#952=AXIS2_PLACEMENT_3D('',#1362,#1087,#1088);
#953=AXIS2_PLACEMENT_3D('',#1364,#1089,#1090);
#954=AXIS2_PLACEMENT_3D('',#1366,#1091,#1092);
#955=AXIS2_PLACEMENT_3D('',#1367,#1093,#1094);
#956=AXIS2_PLACEMENT_3D('',#1369,#1095,#1096);
#957=AXIS2_PLACEMENT_3D('',#1371,#1097,#1098);
#958=AXIS2_PLACEMENT_3D('',#1372,#1099,#1100);
#959=AXIS2_PLACEMENT_3D('',#1374,#1101,#1102);
#960=AXIS2_PLACEMENT_3D('',#1376,#1103,#1104);
#961=AXIS2_PLACEMENT_3D('',#1379,#1107,#1108);
#962=AXIS2_PLACEMENT_3D('',#1382,#1111,#1112);
#963=AXIS2_PLACEMENT_3D('',#1383,#1113,#1114);
#964=AXIS2_PLACEMENT_3D('',#1386,#1117,#1118);
#965=AXIS2_PLACEMENT_3D('',#1388,#1120,#1121);
#966=AXIS2_PLACEMENT_3D('',#1390,#1123,#1124);
#967=AXIS2_PLACEMENT_3D('',#1391,#1125,#1126);
#968=AXIS2_PLACEMENT_3D('',#1394,#1129,#1130);
#969=AXIS2_PLACEMENT_3D('',#1396,#1132,#1133);
#970=AXIS2_PLACEMENT_3D('',#1398,#1135,#1136);
#971=AXIS2_PLACEMENT_3D('',#1399,#1137,#1138);
#972=AXIS2_PLACEMENT_3D('',#1402,#1141,#1142);
#973=AXIS2_PLACEMENT_3D('',#1404,#1144,#1145);
#974=AXIS2_PLACEMENT_3D('',#1406,#1147,#1148);
#975=AXIS2_PLACEMENT_3D('',#1407,#1149,#1150);
#976=AXIS2_PLACEMENT_3D('',#1408,#1151,#1152);
#977=AXIS2_PLACEMENT_3D('',#1409,#1153,#1154);
#978=AXIS2_PLACEMENT_3D('',#1410,#1155,#1156);
#979=AXIS2_PLACEMENT_3D('',#1411,#1157,#1158);
#980=AXIS2_PLACEMENT_3D('',#1412,#1159,#1160);
#981=AXIS2_PLACEMENT_3D('',#1413,#1161,#1162);
#982=AXIS2_PLACEMENT_3D('',#1416,#1165,#1166);
#983=AXIS2_PLACEMENT_3D('',#1418,#1168,#1169);
#984=AXIS2_PLACEMENT_3D('',#1420,#1171,#1172);
#985=AXIS2_PLACEMENT_3D('',#1421,#1173,#1174);
#986=AXIS2_PLACEMENT_3D('',#1422,#1175,#1176);
#987=AXIS2_PLACEMENT_3D('',#1423,#1177,#1178);
#988=AXIS2_PLACEMENT_3D('',#1432,#1183,#1184);
#989=AXIS2_PLACEMENT_3D('',#1438,#1188,#1189);
#990=AXIS2_PLACEMENT_3D('',#1444,#1193,#1194);
#991=AXIS2_PLACEMENT_3D('',#1453,#1199,#1200);
#992=AXIS2_PLACEMENT_3D('',#1459,#1204,#1205);
#993=AXIS2_PLACEMENT_3D('',#1465,#1209,#1210);
#994=AXIS2_PLACEMENT_3D('',#1468,#1213,#1214);
#995=AXIS2_PLACEMENT_3D('',#1469,#1215,#1216);
#996=AXIS2_PLACEMENT_3D('',#1471,#1217,#1218);
#997=AXIS2_PLACEMENT_3D('',#1473,#1219,#1220);
#998=AXIS2_PLACEMENT_3D('',#1474,#1221,#1222);
#999=AXIS2_PLACEMENT_3D('',#1476,#1223,#1224);
#1000=AXIS2_PLACEMENT_3D('',#1478,#1225,#1226);
#1001=AXIS2_PLACEMENT_3D('',#1479,#1227,#1228);
#1002=AXIS2_PLACEMENT_3D('',#1481,#1229,#1230);
#1003=AXIS2_PLACEMENT_3D('',#1483,#1231,#1232);
#1004=AXIS2_PLACEMENT_3D('',#1484,#1233,#1234);
#1005=AXIS2_PLACEMENT_3D('',#1486,#1235,#1236);
#1006=AXIS2_PLACEMENT_3D('',#1488,#1237,#1238);
#1007=AXIS2_PLACEMENT_3D('',#1491,#1241,#1242);
#1008=AXIS2_PLACEMENT_3D('',#1492,#1243,#1244);
#1009=DIRECTION('',(0.,0.,1.));
#1010=DIRECTION('',(1.,0.,0.));
#1011=DIRECTION('',(-1.,0.,0.));
#1012=DIRECTION('',(0.,0.,1.));
#1013=DIRECTION('',(-1.,0.,0.));
#1014=DIRECTION('',(0.,0.,1.));
#1015=DIRECTION('',(0.,-1.,0.));
#1016=DIRECTION('',(0.,0.,1.));
#1017=DIRECTION('',(0.,1.,0.));
#1018=DIRECTION('',(0.,0.,1.));
#1019=DIRECTION('',(0.,0.,-1.));
#1020=DIRECTION('',(0.,-1.,-6.31160509402074E-17));
#1021=DIRECTION('',(0.,0.,-1.));
#1022=DIRECTION('',(0.,-1.,-8.41547345869432E-17));
#1023=DIRECTION('',(-1.,0.,0.));
#1024=DIRECTION('',(0.,0.,1.));
#1025=DIRECTION('',(-1.,0.,0.));
#1026=DIRECTION('',(0.,0.,1.));
#1027=DIRECTION('',(0.,-1.,0.));
#1028=DIRECTION('',(0.,0.,1.));
#1029=DIRECTION('',(0.,-1.,0.));
#1030=DIRECTION('',(0.,0.,1.));
#1031=DIRECTION('',(0.,-1.,-6.31160509402074E-17));
#1032=DIRECTION('',(0.,0.,-1.));
#1033=DIRECTION('',(0.,-1.,-8.41547345869432E-17));
#1034=DIRECTION('',(0.,0.,-1.));
#1035=DIRECTION('',(0.,-1.,0.));
#1036=DIRECTION('',(0.,0.,-1.));
#1037=DIRECTION('',(-1.,0.,-4.20773672934716E-17));
#1038=DIRECTION('',(0.,0.,-1.));
#1039=DIRECTION('',(-1.,0.,0.));
#1040=DIRECTION('',(0.,0.,-1.));
#1041=DIRECTION('',(1.,0.,0.));
#1042=DIRECTION('',(0.,0.,1.));
#1043=DIRECTION('',(1.,0.,0.));
#1044=DIRECTION('',(-1.,0.,0.));
#1045=DIRECTION('',(0.,0.,-1.));
#1046=DIRECTION('',(-1.,0.,0.));
#1047=DIRECTION('',(0.,0.,-1.));
#1048=DIRECTION('',(-1.,0.,-4.20773672934715E-17));
#1049=DIRECTION('',(0.,0.,-1.));
#1050=DIRECTION('',(-1.,0.,0.));
#1051=DIRECTION('',(0.,0.,-1.));
#1052=DIRECTION('',(0.,-1.,0.));
#1053=DIRECTION('',(0.,0.,-1.));
#1054=DIRECTION('',(1.,0.,0.));
#1055=DIRECTION('',(1.,0.,0.));
#1056=DIRECTION('',(0.,0.,1.));
#1057=DIRECTION('',(0.,0.,1.));
#1058=DIRECTION('',(1.,0.,0.));
#1059=DIRECTION('',(0.,0.,1.));
#1060=DIRECTION('',(1.,0.,0.));
#1061=DIRECTION('',(0.,0.,1.));
#1062=DIRECTION('',(1.,0.,4.20773672934716E-17));
#1063=DIRECTION('',(0.,0.,1.));
#1064=DIRECTION('',(1.,0.,0.));
#1065=DIRECTION('',(0.,0.,1.));
#1066=DIRECTION('',(1.,0.,4.20773672934715E-17));
#1067=DIRECTION('',(0.,0.,1.));
#1068=DIRECTION('',(1.,0.,0.));
#1069=DIRECTION('',(0.,-1.,0.));
#1070=DIRECTION('',(0.,0.,-1.));
#1071=DIRECTION('',(1.,0.,0.));
#1072=DIRECTION('',(1.,0.,0.));
#1073=DIRECTION('',(0.,0.,1.));
#1074=DIRECTION('',(-1.,0.,0.));
#1075=DIRECTION('',(0.,0.,1.));
#1076=DIRECTION('',(0.,-1.,0.));
#1077=DIRECTION('',(0.,-1.,0.));
#1078=DIRECTION('',(0.,0.,1.));
#1079=DIRECTION('',(0.,0.,1.));
#1080=DIRECTION('',(1.,0.,0.));
#1081=DIRECTION('',(0.,0.,1.));
#1082=DIRECTION('',(1.,0.,0.));
#1083=DIRECTION('',(0.,0.,1.));
#1084=DIRECTION('',(1.,0.,0.));
#1085=DIRECTION('',(0.,0.,1.));
#1086=DIRECTION('',(1.,0.,0.));
#1087=DIRECTION('',(0.,0.,1.));
#1088=DIRECTION('',(1.,0.,0.));
#1089=DIRECTION('',(0.,0.,1.));
#1090=DIRECTION('',(1.,0.,0.));
#1091=DIRECTION('',(0.,0.,1.));
#1092=DIRECTION('',(1.,0.,0.));
#1093=DIRECTION('',(0.,0.,1.));
#1094=DIRECTION('',(1.,0.,0.));
#1095=DIRECTION('',(0.,0.,1.));
#1096=DIRECTION('',(1.,0.,0.));
#1097=DIRECTION('',(0.,0.,1.));
#1098=DIRECTION('',(1.,0.,0.));
#1099=DIRECTION('',(0.,0.,1.));
#1100=DIRECTION('',(1.,0.,0.));
#1101=DIRECTION('',(0.,0.,1.));
#1102=DIRECTION('',(1.,0.,0.));
#1103=DIRECTION('',(0.,-1.,0.));
#1104=DIRECTION('',(0.,0.,-1.));
#1105=DIRECTION('',(1.,0.,0.));
#1106=DIRECTION('',(1.,0.,0.));
#1107=DIRECTION('',(-1.,0.,0.));
#1108=DIRECTION('',(0.,0.,1.));
#1109=DIRECTION('',(0.,-1.,0.));
#1110=DIRECTION('',(0.,1.,0.));
#1111=DIRECTION('',(0.,0.,1.));
#1112=DIRECTION('',(1.,0.,0.));
#1113=DIRECTION('',(0.,0.,-1.));
#1114=DIRECTION('',(-1.,0.,0.));
#1115=DIRECTION('',(0.,1.,0.));
#1116=DIRECTION('',(0.,1.,0.));
#1117=DIRECTION('',(1.,0.,0.));
#1118=DIRECTION('',(0.,0.,-1.));
#1119=DIRECTION('',(0.,1.,0.));
#1120=DIRECTION('',(0.,0.,-1.));
#1121=DIRECTION('',(-1.,0.,0.));
#1122=DIRECTION('',(0.,1.,0.));
#1123=DIRECTION('',(1.,0.,0.));
#1124=DIRECTION('',(0.,0.,-1.));
#1125=DIRECTION('',(4.20773672934716E-17,0.,-1.));
#1126=DIRECTION('',(-1.,0.,-4.20773672934716E-17));
#1127=DIRECTION('',(0.,1.,0.));
#1128=DIRECTION('',(0.,1.,0.));
#1129=DIRECTION('',(1.,0.,0.));
#1130=DIRECTION('',(0.,0.,-1.));
#1131=DIRECTION('',(0.,1.,0.));
#1132=DIRECTION('',(0.,0.,-1.));
#1133=DIRECTION('',(-1.,0.,0.));
#1134=DIRECTION('',(0.,1.,0.));
#1135=DIRECTION('',(1.,0.,0.));
#1136=DIRECTION('',(0.,0.,-1.));
#1137=DIRECTION('',(4.20773672934715E-17,0.,-1.));
#1138=DIRECTION('',(-1.,0.,-4.20773672934715E-17));
#1139=DIRECTION('',(0.,1.,0.));
#1140=DIRECTION('',(0.,1.,0.));
#1141=DIRECTION('',(1.,0.,0.));
#1142=DIRECTION('',(0.,0.,-1.));
#1143=DIRECTION('',(0.,1.,0.));
#1144=DIRECTION('',(0.,0.,-1.));
#1145=DIRECTION('',(-1.,0.,0.));
#1146=DIRECTION('',(0.,1.,0.));
#1147=DIRECTION('',(1.,0.,0.));
#1148=DIRECTION('',(0.,0.,-1.));
#1149=DIRECTION('',(0.,0.,-1.));
#1150=DIRECTION('',(1.,0.,0.));
#1151=DIRECTION('',(0.,0.,-1.));
#1152=DIRECTION('',(1.,0.,0.));
#1153=DIRECTION('',(0.,0.,-1.));
#1154=DIRECTION('',(1.,0.,0.));
#1155=DIRECTION('',(0.,0.,-1.));
#1156=DIRECTION('',(1.,0.,0.));
#1157=DIRECTION('',(0.,0.,-1.));
#1158=DIRECTION('',(1.,0.,0.));
#1159=DIRECTION('',(0.,0.,-1.));
#1160=DIRECTION('',(1.,0.,0.));
#1161=DIRECTION('',(0.,6.31160509402074E-17,-1.));
#1162=DIRECTION('',(0.,1.,6.31160509402074E-17));
#1163=DIRECTION('',(-1.,0.,0.));
#1164=DIRECTION('',(-1.,0.,0.));
#1165=DIRECTION('',(0.,1.,0.));
#1166=DIRECTION('',(0.,0.,1.));
#1167=DIRECTION('',(-1.,0.,0.));
#1168=DIRECTION('',(0.,8.41547345869432E-17,-1.));
#1169=DIRECTION('',(0.,1.,8.41547345869432E-17));
#1170=DIRECTION('',(-1.,0.,0.));
#1171=DIRECTION('',(0.,1.,0.));
#1172=DIRECTION('',(0.,0.,1.));
#1173=DIRECTION('',(-1.,0.,0.));
#1174=DIRECTION('',(0.,0.,1.));
#1175=DIRECTION('',(0.,0.,1.));
#1176=DIRECTION('',(1.,0.,0.));
#1177=DIRECTION('',(0.,1.,0.));
#1178=DIRECTION('',(0.,0.,1.));
#1179=DIRECTION('',(1.,0.,0.));
#1180=DIRECTION('',(0.,0.,-1.));
#1181=DIRECTION('',(1.,0.,0.));
#1182=DIRECTION('',(0.,0.,-1.));
#1183=DIRECTION('',(1.,0.,0.));
#1184=DIRECTION('',(0.,0.,-1.));
#1185=DIRECTION('',(0.,-1.,0.));
#1186=DIRECTION('',(0.,0.,-1.));
#1187=DIRECTION('',(0.,-1.,0.));
#1188=DIRECTION('',(0.,1.,0.));
#1189=DIRECTION('',(0.,0.,1.));
#1190=DIRECTION('',(1.,0.,0.));
#1191=DIRECTION('',(0.,0.,-1.));
#1192=DIRECTION('',(1.,0.,0.));
#1193=DIRECTION('',(1.,0.,0.));
#1194=DIRECTION('',(0.,0.,-1.));
#1195=DIRECTION('',(0.,-1.,0.));
#1196=DIRECTION('',(0.,0.,-1.));
#1197=DIRECTION('',(0.,-1.,0.));
#1198=DIRECTION('',(0.,0.,-1.));
#1199=DIRECTION('',(0.,1.,0.));
#1200=DIRECTION('',(0.,0.,1.));
#1201=DIRECTION('',(1.,0.,0.));
#1202=DIRECTION('',(0.,0.,-1.));
#1203=DIRECTION('',(1.,0.,0.));
#1204=DIRECTION('',(1.,0.,0.));
#1205=DIRECTION('',(0.,0.,-1.));
#1206=DIRECTION('',(0.,-1.,0.));
#1207=DIRECTION('',(0.,0.,-1.));
#1208=DIRECTION('',(0.,-1.,0.));
#1209=DIRECTION('',(0.,1.,0.));
#1210=DIRECTION('',(0.,0.,1.));
#1211=DIRECTION('',(1.,0.,0.));
#1212=DIRECTION('',(1.,0.,0.));
#1213=DIRECTION('',(0.,0.,-1.));
#1214=DIRECTION('',(-1.,0.,0.));
#1215=DIRECTION('',(0.,0.,1.));
#1216=DIRECTION('',(1.,0.,0.));
#1217=DIRECTION('',(0.,0.,1.));
#1218=DIRECTION('',(1.,0.,0.));
#1219=DIRECTION('',(0.,0.,-1.));
#1220=DIRECTION('',(-1.,0.,0.));
#1221=DIRECTION('',(0.,0.,1.));
#1222=DIRECTION('',(1.,0.,0.));
#1223=DIRECTION('',(0.,0.,1.));
#1224=DIRECTION('',(1.,0.,0.));
#1225=DIRECTION('',(0.,0.,-1.));
#1226=DIRECTION('',(-1.,0.,0.));
#1227=DIRECTION('',(0.,0.,1.));
#1228=DIRECTION('',(1.,0.,0.));
#1229=DIRECTION('',(0.,0.,1.));
#1230=DIRECTION('',(1.,0.,0.));
#1231=DIRECTION('',(0.,0.,-1.));
#1232=DIRECTION('',(-1.,0.,0.));
#1233=DIRECTION('',(0.,0.,1.));
#1234=DIRECTION('',(1.,0.,0.));
#1235=DIRECTION('',(0.,0.,1.));
#1236=DIRECTION('',(1.,0.,0.));
#1237=DIRECTION('',(1.,0.,0.));
#1238=DIRECTION('',(0.,0.,-1.));
#1239=DIRECTION('',(0.,-1.,0.));
#1240=DIRECTION('',(0.,-1.,0.));
#1241=DIRECTION('',(0.,0.,1.));
#1242=DIRECTION('',(1.,0.,0.));
#1243=DIRECTION('',(0.,0.,1.));
#1244=DIRECTION('',(1.,0.,0.));
#1245=CARTESIAN_POINT('',(0.,0.,0.));
#1246=CARTESIAN_POINT('',(-0.0369410774254799,0.000286141410470009,-0.01754));
#1247=CARTESIAN_POINT('',(-0.0369410774254799,0.,-0.0135062430053949));
#1248=CARTESIAN_POINT('',(-0.0369410774254799,0.,-0.00991479453350148));
#1249=CARTESIAN_POINT('',(-0.0369410774254799,0.000286141410470009,0.00076));
#1250=CARTESIAN_POINT('',(-0.0369410774254799,0.0207564942538738,0.00076));
#1251=CARTESIAN_POINT('',(-0.0369410774254799,-0.0201842114329338,0.00076));
#1252=CARTESIAN_POINT('',(-0.0369410774254799,0.0207564942538738,-0.01754));
#1253=CARTESIAN_POINT('',(-0.0369410774254799,0.0207564942538738,-0.01814));
#1254=CARTESIAN_POINT('',(-0.0369410774254799,0.000286141410470009,-0.01814));
#1255=CARTESIAN_POINT('',(-0.0369410774254799,-0.0201842114329338,-0.01814));
#1256=CARTESIAN_POINT('',(-0.0369410774254799,-0.0201842114329338,-0.01754));
#1257=CARTESIAN_POINT('',(-0.0369410774254799,0.0101824714624081,-0.0041502505429089));
#1258=CARTESIAN_POINT('',(-0.0369410774254799,0.0101824714624081,-0.00112042934550346));
#1259=CARTESIAN_POINT('',(-0.0369410774254799,0.0101824714624081,-0.00718007174031435));
#1260=CARTESIAN_POINT('',(-0.0369410774254799,-0.00012427767352202,-0.00112042934550346));
#1261=CARTESIAN_POINT('',(-0.0369410774254799,-0.0104310268094521,-0.00112042934550346));
#1262=CARTESIAN_POINT('',(-0.0369410774254799,-0.0104310268094521,-0.0041502505429089));
#1263=CARTESIAN_POINT('',(-0.0369410774254799,-0.0104310268094521,-0.00718007174031436));
#1264=CARTESIAN_POINT('',(-0.0369410774254799,-0.00012427767352202,-0.00718007174031436));
#1265=CARTESIAN_POINT('',(-0.0330866857140608,-0.000489515422345415,-0.01754));
#1266=CARTESIAN_POINT('',(-0.0330866857140608,0.,-0.0135062430053949));
#1267=CARTESIAN_POINT('',(-0.0330866857140608,0.,-0.00991479453350148));
#1268=CARTESIAN_POINT('',(-0.0330866857140608,-0.000489515422345415,0.00076));
#1269=CARTESIAN_POINT('',(-0.0330866857140608,0.0158062995238789,0.00076));
#1270=CARTESIAN_POINT('',(-0.0330866857140608,-0.0167853303685697,0.00076));
#1271=CARTESIAN_POINT('',(-0.0330866857140608,-0.0167853303685697,-0.01754));
#1272=CARTESIAN_POINT('',(-0.0330866857140608,-0.0167853303685697,-0.01754));
#1273=CARTESIAN_POINT('',(-0.0330866857140608,-0.000489515422345415,-0.01754));
#1274=CARTESIAN_POINT('',(-0.0330866857140608,0.0158062995238789,-0.01754));
#1275=CARTESIAN_POINT('',(-0.0330866857140608,0.0158062995238789,-0.01754));
#1276=CARTESIAN_POINT('',(-0.0330866857140608,-0.000489515422345416,-0.00112042934550346));
#1277=CARTESIAN_POINT('',(-0.0330866857140608,0.0101824714624081,-0.00112042934550346));
#1278=CARTESIAN_POINT('',(-0.0330866857140608,-0.0104310268094521,-0.00112042934550346));
#1279=CARTESIAN_POINT('',(-0.0330866857140608,0.0101824714624081,-0.01754));
#1280=CARTESIAN_POINT('',(-0.0330866857140608,0.0101824714624081,-0.00718007174031435));
#1281=CARTESIAN_POINT('',(-0.0330866857140608,-0.000489515422345416,-0.00718007174031436));
#1282=CARTESIAN_POINT('',(-0.0330866857140608,-0.0104310268094521,-0.00718007174031436));
#1283=CARTESIAN_POINT('',(-0.0330866857140608,-0.0104310268094521,-0.01754));
#1284=CARTESIAN_POINT('',(0.00181347145199776,0.0207564942538738,-0.01754));
#1285=CARTESIAN_POINT('',(0.0212635416537523,0.0207564942538738,-0.0020185138667971));
#1286=CARTESIAN_POINT('',(0.0315702907896824,0.0207564942538738,-0.0020185138667971));
#1287=CARTESIAN_POINT('',(0.0109567925178222,0.0207564942538738,-0.0020185138667971));
#1288=CARTESIAN_POINT('',(0.0109567925178222,0.0207564942538738,-0.00504833506420255));
#1289=CARTESIAN_POINT('',(0.0109567925178222,0.0207564942538738,-0.008078156261608));
#1290=CARTESIAN_POINT('',(0.0212635416537523,0.0207564942538738,-0.008078156261608));
#1291=CARTESIAN_POINT('',(0.0315702907896825,0.0207564942538738,-0.008078156261608));
#1292=CARTESIAN_POINT('',(0.0315702907896824,0.0207564942538738,-0.00504833506420255));
#1293=CARTESIAN_POINT('',(0.00181347145199776,0.0207564942538738,0.00076));
#1294=CARTESIAN_POINT('',(0.0405680203294754,0.0207564942538738,0.00076));
#1295=CARTESIAN_POINT('',(0.0405680203294754,0.0207564942538738,-0.01754));
#1296=CARTESIAN_POINT('',(0.0405680203294754,0.0207564942538738,-0.01814));
#1297=CARTESIAN_POINT('',(0.00181347145199776,0.0207564942538738,-0.01814));
#1298=CARTESIAN_POINT('',(-1.63684599101543E-5,0.0207564942538738,0.));
#1299=CARTESIAN_POINT('',(0.0100062424317002,0.0207564942538738,0.));
#1300=CARTESIAN_POINT('',(-0.0100389793515205,0.0207564942538738,0.));
#1301=CARTESIAN_POINT('',(-0.0100389793515205,0.0207564942538738,-0.0035970734898001));
#1302=CARTESIAN_POINT('',(-0.0100389793515205,0.0207564942538738,-0.00719414697960019));
#1303=CARTESIAN_POINT('',(-1.63684599101543E-5,0.0207564942538738,-0.00719414697960019));
#1304=CARTESIAN_POINT('',(0.0100062424317002,0.0207564942538738,-0.00719414697960019));
#1305=CARTESIAN_POINT('',(0.0100062424317002,0.0207564942538738,-0.0035970734898001));
#1306=CARTESIAN_POINT('',(-0.0214191658318043,0.0207564942538738,-0.0020185138667971));
#1307=CARTESIAN_POINT('',(-0.0111124166958742,0.0207564942538738,-0.0020185138667971));
#1308=CARTESIAN_POINT('',(-0.0317259149677344,0.0207564942538738,-0.0020185138667971));
#1309=CARTESIAN_POINT('',(-0.0317259149677344,0.0207564942538738,-0.00504833506420255));
#1310=CARTESIAN_POINT('',(-0.0317259149677344,0.0207564942538738,-0.008078156261608));
#1311=CARTESIAN_POINT('',(-0.0214191658318043,0.0207564942538738,-0.008078156261608));
#1312=CARTESIAN_POINT('',(-0.0111124166958742,0.0207564942538738,-0.008078156261608));
#1313=CARTESIAN_POINT('',(-0.0111124166958742,0.0207564942538738,-0.00504833506420255));
#1314=CARTESIAN_POINT('',(0.00102724967333934,0.0158062995238789,-0.01754));
#1315=CARTESIAN_POINT('',(0.00102724967333934,0.0158062995238789,0.00076));
#1316=CARTESIAN_POINT('',(0.0351411850607395,0.0158062995238789,0.00076));
#1317=CARTESIAN_POINT('',(0.00102724967333934,0.0158062995238789,-0.01754));
#1318=CARTESIAN_POINT('',(0.0351411850607395,0.0158062995238789,-0.01754));
#1319=CARTESIAN_POINT('',(0.0351411850607395,0.0158062995238789,-0.01754));
#1320=CARTESIAN_POINT('',(-0.0100389793515205,0.0158062995238789,-0.01754));
#1321=CARTESIAN_POINT('',(-0.0100389793515205,0.0158062995238789,-0.00719414697960019));
#1322=CARTESIAN_POINT('',(-0.0100389793515205,0.0158062995238789,0.));
#1323=CARTESIAN_POINT('',(0.00102724967333934,0.0158062995238789,0.));
#1324=CARTESIAN_POINT('',(0.0100062424317002,0.0158062995238789,0.));
#1325=CARTESIAN_POINT('',(0.0100062424317002,0.0158062995238789,-0.01754));
#1326=CARTESIAN_POINT('',(0.0100062424317002,0.0158062995238789,-0.00719414697960019));
#1327=CARTESIAN_POINT('',(0.00102724967333934,0.0158062995238789,-0.00719414697960019));
#1328=CARTESIAN_POINT('',(0.0109567925178222,0.0158062995238789,-0.01754));
#1329=CARTESIAN_POINT('',(0.0109567925178222,0.0158062995238789,-0.008078156261608));
#1330=CARTESIAN_POINT('',(0.0109567925178222,0.0158062995238789,-0.0020185138667971));
#1331=CARTESIAN_POINT('',(0.00102724967333934,0.0158062995238789,-0.0020185138667971));
#1332=CARTESIAN_POINT('',(0.0315702907896824,0.0158062995238789,-0.0020185138667971));
#1333=CARTESIAN_POINT('',(0.0315702907896824,0.0158062995238789,-0.01754));
#1334=CARTESIAN_POINT('',(0.0315702907896825,0.0158062995238789,-0.008078156261608));
#1335=CARTESIAN_POINT('',(0.00102724967333934,0.0158062995238789,-0.008078156261608));
#1336=CARTESIAN_POINT('',(-0.0317259149677344,0.0158062995238789,-0.01754));
#1337=CARTESIAN_POINT('',(-0.0317259149677344,0.0158062995238789,-0.008078156261608));
#1338=CARTESIAN_POINT('',(-0.0317259149677344,0.0158062995238789,-0.0020185138667971));
#1339=CARTESIAN_POINT('',(0.00102724967333934,0.0158062995238789,-0.0020185138667971));
#1340=CARTESIAN_POINT('',(-0.0111124166958742,0.0158062995238789,-0.0020185138667971));
#1341=CARTESIAN_POINT('',(-0.0111124166958742,0.0158062995238789,-0.01754));
#1342=CARTESIAN_POINT('',(-0.0111124166958742,0.0158062995238789,-0.008078156261608));
#1343=CARTESIAN_POINT('',(0.00102724967333934,0.0158062995238789,-0.008078156261608));
#1344=CARTESIAN_POINT('',(0.00181347145199776,-0.0201842114329338,-0.01754));
#1345=CARTESIAN_POINT('',(0.00181347145199776,-0.0201842114329338,0.00076));
#1346=CARTESIAN_POINT('',(0.0405680203294754,-0.0201842114329338,0.00076));
#1347=CARTESIAN_POINT('',(0.00181347145199776,-0.0201842114329338,-0.01814));
#1348=CARTESIAN_POINT('',(0.0405680203294754,-0.0201842114329338,-0.01814));
#1349=CARTESIAN_POINT('',(0.0405680203294754,-0.0201842114329338,-0.01754));
#1350=CARTESIAN_POINT('',(0.0351411850607395,-0.000489515422345415,-0.01754));
#1351=CARTESIAN_POINT('',(0.0351411850607395,-0.000489515422345415,0.00076));
#1352=CARTESIAN_POINT('',(0.0351411850607395,-0.0167853303685697,0.00076));
#1353=CARTESIAN_POINT('',(0.0351411850607395,-0.000489515422345415,-0.01754));
#1354=CARTESIAN_POINT('',(0.0351411850607395,-0.0167853303685697,-0.01754));
#1355=CARTESIAN_POINT('',(0.0351411850607395,-0.0167853303685697,-0.01754));
#1356=CARTESIAN_POINT('',(0.0378651396787167,0.0178946182131768,-0.01754));
#1357=CARTESIAN_POINT('',(0.0378651396787167,0.0178946182131768,-0.01754));
#1358=CARTESIAN_POINT('',(0.0398532461242849,0.0178946182131768,-0.01754));
#1359=CARTESIAN_POINT('',(0.0378651396787167,0.0178946182131768,0.00076));
#1360=CARTESIAN_POINT('',(0.0398532461242849,0.0178946182131768,0.00076));
#1361=CARTESIAN_POINT('',(0.0379859992718697,-0.0173788834363222,-0.01754));
#1362=CARTESIAN_POINT('',(0.0379859992718697,-0.0173788834363222,-0.01754));
#1363=CARTESIAN_POINT('',(0.0399720278997052,-0.0173788834363222,-0.01754));
#1364=CARTESIAN_POINT('',(0.0379859992718697,-0.0173788834363222,0.00076));
#1365=CARTESIAN_POINT('',(0.0399720278997052,-0.0173788834363222,0.00076));
#1366=CARTESIAN_POINT('',(-0.034749854221344,-0.0180697217583656,-0.01754));
#1367=CARTESIAN_POINT('',(-0.034749854221344,-0.0180697217583656,-0.01754));
#1368=CARTESIAN_POINT('',(-0.0327638255935085,-0.0180697217583656,-0.01754));
#1369=CARTESIAN_POINT('',(-0.034749854221344,-0.0180697217583656,0.00076));
#1370=CARTESIAN_POINT('',(-0.0327638255935085,-0.0180697217583656,0.00076));
#1371=CARTESIAN_POINT('',(-0.0342579281115532,0.0180069022876025,-0.01754));
#1372=CARTESIAN_POINT('',(-0.0342579281115532,0.0180069022876025,-0.01754));
#1373=CARTESIAN_POINT('',(-0.0322718994837177,0.0180069022876025,-0.01754));
#1374=CARTESIAN_POINT('',(-0.0342579281115532,0.0180069022876025,0.00076));
#1375=CARTESIAN_POINT('',(-0.0322718994837177,0.0180069022876025,0.00076));
#1376=CARTESIAN_POINT('',(0.00102724967333934,-0.0167853303685697,-0.01754));
#1377=CARTESIAN_POINT('',(0.00102724967333934,-0.0167853303685697,0.00076));
#1378=CARTESIAN_POINT('',(0.00102724967333934,-0.0167853303685697,-0.01754));
#1379=CARTESIAN_POINT('',(0.0405680203294754,0.000286141410470009,-0.01754));
#1380=CARTESIAN_POINT('',(0.0405680203294754,0.000286141410470009,0.00076));
#1381=CARTESIAN_POINT('',(0.0405680203294754,0.000286141410470009,-0.01814));
#1382=CARTESIAN_POINT('',(0.00181347145199776,0.000286141410470009,0.00076));
#1383=CARTESIAN_POINT('',(-1.63684599101543E-5,-0.00424350574612618,0.));
#1384=CARTESIAN_POINT('',(-0.0100389793515205,-0.00424350574612618,0.));
#1385=CARTESIAN_POINT('',(0.0100062424317002,-0.00424350574612618,0.));
#1386=CARTESIAN_POINT('',(0.0100062424317002,-0.00424350574612618,-0.0035970734898001));
#1387=CARTESIAN_POINT('',(0.0100062424317002,-0.00424350574612618,-0.00719414697960019));
#1388=CARTESIAN_POINT('',(-1.63684599101543E-5,-0.00424350574612618,-0.00719414697960019));
#1389=CARTESIAN_POINT('',(-0.0100389793515205,-0.00424350574612618,-0.00719414697960019));
#1390=CARTESIAN_POINT('',(-0.0100389793515205,-0.00424350574612618,-0.0035970734898001));
#1391=CARTESIAN_POINT('',(0.0212635416537523,-0.00424350574612618,-0.0020185138667971));
#1392=CARTESIAN_POINT('',(0.0109567925178222,-0.00424350574612618,-0.0020185138667971));
#1393=CARTESIAN_POINT('',(0.0315702907896824,-0.00424350574612618,-0.0020185138667971));
#1394=CARTESIAN_POINT('',(0.0315702907896824,-0.00424350574612618,-0.00504833506420255));
#1395=CARTESIAN_POINT('',(0.0315702907896825,-0.00424350574612618,-0.008078156261608));
#1396=CARTESIAN_POINT('',(0.0212635416537523,-0.00424350574612618,-0.008078156261608));
#1397=CARTESIAN_POINT('',(0.0109567925178222,-0.00424350574612618,-0.008078156261608));
#1398=CARTESIAN_POINT('',(0.0109567925178222,-0.00424350574612618,-0.00504833506420255));
#1399=CARTESIAN_POINT('',(-0.0214191658318043,-0.00424350574612618,-0.0020185138667971));
#1400=CARTESIAN_POINT('',(-0.0317259149677344,-0.00424350574612618,-0.0020185138667971));
#1401=CARTESIAN_POINT('',(-0.0111124166958742,-0.00424350574612618,-0.0020185138667971));
#1402=CARTESIAN_POINT('',(-0.0111124166958742,-0.00424350574612618,-0.00504833506420255));
#1403=CARTESIAN_POINT('',(-0.0111124166958742,-0.00424350574612618,-0.008078156261608));
#1404=CARTESIAN_POINT('',(-0.0214191658318043,-0.00424350574612618,-0.008078156261608));
#1405=CARTESIAN_POINT('',(-0.0317259149677344,-0.00424350574612618,-0.008078156261608));
#1406=CARTESIAN_POINT('',(-0.0317259149677344,-0.00424350574612618,-0.00504833506420255));
#1407=CARTESIAN_POINT('',(0.00181347145199776,0.000286141410470009,-0.01754));
#1408=CARTESIAN_POINT('',(0.00181347145199776,0.000286141410470009,-0.01754));
#1409=CARTESIAN_POINT('',(0.00181347145199776,0.000286141410470009,-0.01754));
#1410=CARTESIAN_POINT('',(0.00181347145199776,0.000286141410470009,-0.01754));
#1411=CARTESIAN_POINT('',(0.00181347145199776,0.000286141410470009,-0.01754));
#1412=CARTESIAN_POINT('',(0.00181347145199776,0.000286141410470009,-0.01814));
#1413=CARTESIAN_POINT('',(-0.0119410774254799,-0.00012427767352202,-0.00112042934550346));
#1414=CARTESIAN_POINT('',(-0.0119410774254799,-0.0104310268094521,-0.00112042934550346));
#1415=CARTESIAN_POINT('',(-0.0119410774254799,0.0101824714624081,-0.00112042934550346));
#1416=CARTESIAN_POINT('',(-0.0119410774254799,0.0101824714624081,-0.0041502505429089));
#1417=CARTESIAN_POINT('',(-0.0119410774254799,0.0101824714624081,-0.00718007174031435));
#1418=CARTESIAN_POINT('',(-0.0119410774254799,-0.00012427767352202,-0.00718007174031436));
#1419=CARTESIAN_POINT('',(-0.0119410774254799,-0.0104310268094521,-0.00718007174031436));
#1420=CARTESIAN_POINT('',(-0.0119410774254799,-0.0104310268094521,-0.0041502505429089));
#1421=CARTESIAN_POINT('',(-0.0119410774254799,0.,-0.0135062430053949));
#1422=CARTESIAN_POINT('',(0.,0.,0.));
#1423=CARTESIAN_POINT('',(0.00181347145199776,0.0207564942538738,0.00306));
#1424=CARTESIAN_POINT('',(0.00181347145199776,0.0207564942538738,0.00076));
#1425=CARTESIAN_POINT('',(-0.0369410774254799,0.0207564942538738,0.00076));
#1426=CARTESIAN_POINT('',(0.0405680203294754,0.0207564942538738,0.00076));
#1427=CARTESIAN_POINT('',(-0.0369410774254799,0.0207564942538738,0.00306));
#1428=CARTESIAN_POINT('',(-0.0369410774254799,0.0207564942538738,0.00306));
#1429=CARTESIAN_POINT('',(0.00181347145199776,0.0207564942538738,0.00306));
#1430=CARTESIAN_POINT('',(0.0405680203294754,0.0207564942538738,0.00306));
#1431=CARTESIAN_POINT('',(0.0405680203294754,0.0207564942538738,0.00306));
#1432=CARTESIAN_POINT('',(-0.0369410774254799,0.000286141410470009,0.00306));
#1433=CARTESIAN_POINT('',(-0.0369410774254799,0.000286141410470009,0.00076));
#1434=CARTESIAN_POINT('',(-0.0369410774254799,-0.0201842114329338,0.00076));
#1435=CARTESIAN_POINT('',(-0.0369410774254799,-0.0201842114329338,0.00306));
#1436=CARTESIAN_POINT('',(-0.0369410774254799,-0.0201842114329338,0.00306));
#1437=CARTESIAN_POINT('',(-0.0369410774254799,0.000286141410470009,0.00306));
#1438=CARTESIAN_POINT('',(0.00181347145199776,-0.0201842114329338,0.00306));
#1439=CARTESIAN_POINT('',(0.00181347145199776,-0.0201842114329338,0.00076));
#1440=CARTESIAN_POINT('',(0.0405680203294754,-0.0201842114329338,0.00076));
#1441=CARTESIAN_POINT('',(0.0405680203294754,-0.0201842114329338,0.00306));
#1442=CARTESIAN_POINT('',(0.0405680203294754,-0.0201842114329338,0.00306));
#1443=CARTESIAN_POINT('',(0.00181347145199776,-0.0201842114329338,0.00306));
#1444=CARTESIAN_POINT('',(-0.0299860462546349,0.000176360365003348,0.00306));
#1445=CARTESIAN_POINT('',(-0.0299860462546349,0.000176360365003348,0.00076));
#1446=CARTESIAN_POINT('',(-0.0299860462546349,0.0148733826354146,0.00076));
#1447=CARTESIAN_POINT('',(-0.0299860462546349,-0.0145206619054079,0.00076));
#1448=CARTESIAN_POINT('',(-0.0299860462546349,0.0148733826354146,0.00306));
#1449=CARTESIAN_POINT('',(-0.0299860462546349,0.0148733826354146,0.00306));
#1450=CARTESIAN_POINT('',(-0.0299860462546349,0.000176360365003348,0.00306));
#1451=CARTESIAN_POINT('',(-0.0299860462546349,-0.0145206619054079,0.00306));
#1452=CARTESIAN_POINT('',(-0.0299860462546349,-0.0145206619054079,0.00306));
#1453=CARTESIAN_POINT('',(-0.000255106948316098,0.0148733826354146,0.00306));
#1454=CARTESIAN_POINT('',(-0.000255106948316098,0.0148733826354146,0.00076));
#1455=CARTESIAN_POINT('',(0.0294758323580027,0.0148733826354146,0.00076));
#1456=CARTESIAN_POINT('',(0.0294758323580027,0.0148733826354146,0.00306));
#1457=CARTESIAN_POINT('',(0.0294758323580027,0.0148733826354146,0.00306));
#1458=CARTESIAN_POINT('',(-0.000255106948316098,0.0148733826354146,0.00306));
#1459=CARTESIAN_POINT('',(0.0294758323580027,0.000176360365003348,0.00306));
#1460=CARTESIAN_POINT('',(0.0294758323580027,0.000176360365003348,0.00076));
#1461=CARTESIAN_POINT('',(0.0294758323580027,-0.0145206619054079,0.00076));
#1462=CARTESIAN_POINT('',(0.0294758323580027,-0.0145206619054079,0.00306));
#1463=CARTESIAN_POINT('',(0.0294758323580027,-0.0145206619054079,0.00306));
#1464=CARTESIAN_POINT('',(0.0294758323580027,0.000176360365003348,0.00306));
#1465=CARTESIAN_POINT('',(-0.000255106948316098,-0.0145206619054079,0.00306));
#1466=CARTESIAN_POINT('',(-0.000255106948316098,-0.0145206619054079,0.00076));
#1467=CARTESIAN_POINT('',(-0.000255106948316098,-0.0145206619054079,0.00306));
#1468=CARTESIAN_POINT('',(-0.0342579281115532,0.0180069022876025,0.00306));
#1469=CARTESIAN_POINT('',(-0.0342579281115532,0.0180069022876025,0.00306));
#1470=CARTESIAN_POINT('',(-0.0322365794782098,0.0180069022876025,0.00306));
#1471=CARTESIAN_POINT('',(-0.0342579281115532,0.0180069022876025,0.00076));
#1472=CARTESIAN_POINT('',(-0.0322365794782098,0.0180069022876025,0.00076));
#1473=CARTESIAN_POINT('',(-0.034749854221344,-0.0180697217583656,0.00306));
#1474=CARTESIAN_POINT('',(-0.034749854221344,-0.0180697217583656,0.00306));
#1475=CARTESIAN_POINT('',(-0.0327543920618232,-0.0180697217583656,0.00306));
#1476=CARTESIAN_POINT('',(-0.034749854221344,-0.0180697217583656,0.00076));
#1477=CARTESIAN_POINT('',(-0.0327543920618232,-0.0180697217583656,0.00076));
#1478=CARTESIAN_POINT('',(0.0379859992718697,-0.0173788834363222,0.00306));
#1479=CARTESIAN_POINT('',(0.0379859992718697,-0.0173788834363222,0.00306));
#1480=CARTESIAN_POINT('',(0.0399585418376088,-0.0173788834363222,0.00306));
#1481=CARTESIAN_POINT('',(0.0379859992718697,-0.0173788834363222,0.00076));
#1482=CARTESIAN_POINT('',(0.0399585418376088,-0.0173788834363222,0.00076));
#1483=CARTESIAN_POINT('',(0.0378651396787167,0.0178946182131768,0.00306));
#1484=CARTESIAN_POINT('',(0.0378651396787167,0.0178946182131768,0.00306));
#1485=CARTESIAN_POINT('',(0.039852212403228,0.0178946182131768,0.00306));
#1486=CARTESIAN_POINT('',(0.0378651396787167,0.0178946182131768,0.00076));
#1487=CARTESIAN_POINT('',(0.039852212403228,0.0178946182131768,0.00076));
#1488=CARTESIAN_POINT('',(0.0405680203294754,0.000286141410470009,0.00306));
#1489=CARTESIAN_POINT('',(0.0405680203294754,0.000286141410470009,0.00076));
#1490=CARTESIAN_POINT('',(0.0405680203294754,0.000286141410470009,0.00306));
#1491=CARTESIAN_POINT('',(0.00181347145199776,0.000286141410470009,0.00306));
#1492=CARTESIAN_POINT('',(0.00181347145199776,0.000286141410470009,0.00076));
#1493=MECHANICAL_DESIGN_GEOMETRIC_PRESENTATION_REPRESENTATION('',(#918),
#1495);
#1494=MECHANICAL_DESIGN_GEOMETRIC_PRESENTATION_REPRESENTATION('',(#919),
#1496);
#1495=(
GEOMETRIC_REPRESENTATION_CONTEXT(3)
GLOBAL_UNCERTAINTY_ASSIGNED_CONTEXT((#1497))
GLOBAL_UNIT_ASSIGNED_CONTEXT((#1503,#1501,#1499))
REPRESENTATION_CONTEXT('Part 1','TOP_LEVEL_ASSEMBLY_PART')
);
#1496=(
GEOMETRIC_REPRESENTATION_CONTEXT(3)
GLOBAL_UNCERTAINTY_ASSIGNED_CONTEXT((#1498))
GLOBAL_UNIT_ASSIGNED_CONTEXT((#1504,#1502,#1500))
REPRESENTATION_CONTEXT('Part 2','TOP_LEVEL_ASSEMBLY_PART')
);
#1497=UNCERTAINTY_MEASURE_WITH_UNIT(LENGTH_MEASURE(1.E-8),#1503,
'DISTANCE_ACCURACY_VALUE','Maximum Tolerance applied to model');
#1498=UNCERTAINTY_MEASURE_WITH_UNIT(LENGTH_MEASURE(1.E-8),#1504,
'DISTANCE_ACCURACY_VALUE','Maximum Tolerance applied to model');
#1499=(
NAMED_UNIT(*)
SI_UNIT($,.STERADIAN.)
SOLID_ANGLE_UNIT()
);
#1500=(
NAMED_UNIT(*)
SI_UNIT($,.STERADIAN.)
SOLID_ANGLE_UNIT()
);
#1501=(
NAMED_UNIT(*)
PLANE_ANGLE_UNIT()
SI_UNIT($,.RADIAN.)
);
#1502=(
NAMED_UNIT(*)
PLANE_ANGLE_UNIT()
SI_UNIT($,.RADIAN.)
);
#1503=(
LENGTH_UNIT()
NAMED_UNIT(*)
SI_UNIT($,.METRE.)
);
#1504=(
LENGTH_UNIT()
NAMED_UNIT(*)
SI_UNIT($,.METRE.)
);
#1505=PRODUCT_DEFINITION_SHAPE('','',#1507);
#1506=PRODUCT_DEFINITION_SHAPE('','',#1508);
#1507=PRODUCT_DEFINITION('','',#1511,#1509);
#1508=PRODUCT_DEFINITION('','',#1512,#1510);
#1509=PRODUCT_DEFINITION_CONTEXT('',#1523,'design');
#1510=PRODUCT_DEFINITION_CONTEXT('',#1524,'design');
#1511=PRODUCT_DEFINITION_FORMATION_WITH_SPECIFIED_SOURCE('','',#1515,
 .NOT_KNOWN.);
#1512=PRODUCT_DEFINITION_FORMATION_WITH_SPECIFIED_SOURCE('','',#1516,
 .NOT_KNOWN.);
#1513=PRODUCT_RELATED_PRODUCT_CATEGORY('','',(#1515));
#1514=PRODUCT_RELATED_PRODUCT_CATEGORY('','',(#1516));
#1515=PRODUCT('Part 1','Part 1','Part 1',(#1519));
#1516=PRODUCT('Part 2','Part 2','Part 2',(#1520));
#1517=PRODUCT_CATEGORY('','');
#1518=PRODUCT_CATEGORY('','');
#1519=PRODUCT_CONTEXT('',#1523,'mechanical');
#1520=PRODUCT_CONTEXT('',#1524,'mechanical');
#1521=APPLICATION_PROTOCOL_DEFINITION('international standard',
'ap242_managed_model_based_3d_engineering',2020,#1523);
#1522=APPLICATION_PROTOCOL_DEFINITION('international standard',
'ap242_managed_model_based_3d_engineering',2020,#1524);
#1523=APPLICATION_CONTEXT('managed model based 3d engineering');
#1524=APPLICATION_CONTEXT('managed model based 3d engineering');
ENDSEC;
END-ISO-10303-21;
